<svg data-name="Layer 1" xmlns="http://www.w3.org/2000/svg" viewBox="0 0 34.47 3.98"><path d="M.66 2a.33.33 0 1 1-.33-.33.33.33 0 0 1 .33.33zm2.55 0a.33.33 0 0 1-.33.33.33.33 0 0 1 0-.66.33.33 0 0 1 .33.33zm2.54 0a.33.33 0 1 1-.33-.33.33.33 0 0 1 .33.33zm2.54 0A.33.33 0 1 1 8 1.66a.33.33 0 0 1 .29.34zm2.55 0a.33.33 0 0 1-.33.33.33.33 0 0 1 0-.66.33.33 0 0 1 .33.33zm2.54 0a.33.33 0 1 1-.33-.33.33.33 0 0 1 .33.33zm2.55 0a.33.33 0 1 1-.33-.33.33.33 0 0 1 .33.33zm2.55 0a.33.33 0 0 1-.33.33.33.33 0 1 1 0-.66.33.33 0 0 1 .32.33zM21 2a.33.33 0 1 1-.33-.33A.33.33 0 0 1 21 2zm2.55 0a.33.33 0 0 1-.33.33.33.33 0 1 1 0-.66.33.33 0 0 1 .34.33zm2.55 0a.33.33 0 1 1-.33-.33.33.33 0 0 1 .33.33zm2.55 0a.33.33 0 1 1-.33-.33.33.33 0 0 1 .33.33zm2.55 0a.33.33 0 0 1-.33.33.33.33 0 0 1 0-.66.33.33 0 0 1 .32.33z" style="fill:#3d4752"/><path d="m33.4 2-4.72 1.52V.46z" style="stroke:#3d4752;stroke-width:.66px;fill:#3d4752"/></svg>