<svg id="Layer_1" data-name="Layer 1" xmlns="http://www.w3.org/2000/svg" viewBox="0 0 135.07 73.68"><defs><style>.cls-1{fill:#cdbbdc}.cls-2{fill:none;stroke-miterlimit:10;stroke:#fff;stroke-width:.52px}.cls-4{fill:#3d4752}</style></defs><path class="cls-1" d="M.26.26h82.99v52.2H.26z"/><path class="cls-2" d="M.26.26h82.99v52.2H.26zM.26 17.28h82.99"/><path class="cls-1" d="M93.25.54h41.76v73.07H93.25z"/><path class="cls-4" d="M25.34 6.15v-.36l2.53-1.12v.55L26.18 6l1.69.76v.55zM28.67 6.15v-.36l2.53-1.12v.55L29.51 6l1.69.76v.55zM31.88 4.27A.34.34 0 0 1 32 4a.37.37 0 0 1 .27-.11.4.4 0 0 1 .28.1.35.35 0 0 1 0 .52.4.4 0 0 1-.28.1.37.37 0 0 1-.27-.08.35.35 0 0 1-.12-.26zm.08.81h.6v2.4H32zM33.3 5.09h.57v.38a.78.78 0 0 1 .28-.32.8.8 0 0 1 .47-.15.91.91 0 0 1 .4.08.79.79 0 0 1 .27.22.87.87 0 0 1 .16.31 1.31 1.31 0 0 1 0 .36v1.5h-.6V6.16a1.74 1.74 0 0 0 0-.22.6.6 0 0 0-.06-.21.44.44 0 0 0-.14-.15.4.4 0 0 0-.23-.06.52.52 0 0 0-.25.06.53.53 0 0 0-.17.15.65.65 0 0 0-.1.21.83.83 0 0 0 0 .24v1.31h-.6zM35.86 5.57v-.48h.42v-.7h.59v.7h.6v.48h-.6v1.11a.54.54 0 0 0 .06.27q.06.1.26.1h.26v.47h-.4a1 1 0 0 1-.39-.07.59.59 0 0 1-.24-.19.69.69 0 0 1-.11-.26 1.58 1.58 0 0 1 0-.33v-1.1zM40.2 6.32v.08a.63.63 0 0 1 0 .08h-1.83a.6.6 0 0 0 .22.42.76.76 0 0 0 .21.1.71.71 0 0 0 .25 0 .8.8 0 0 0 .38 0 .71.71 0 0 0 .26-.23l.4.32a1.2 1.2 0 0 1-1 .48 1.46 1.46 0 0 1-.51-.09 1.21 1.21 0 0 1-.41-.25 1.11 1.11 0 0 1-.27-.39 1.35 1.35 0 0 1-.1-.53 1.38 1.38 0 0 1 .1-.53 1.17 1.17 0 0 1 .67-.67A1.35 1.35 0 0 1 39 5a1.28 1.28 0 0 1 .46.08 1 1 0 0 1 .37.25 1.14 1.14 0 0 1 .24.41 1.68 1.68 0 0 1 .13.58zM39.6 6a.75.75 0 0 0 0-.22.52.52 0 0 0-.1-.19.5.5 0 0 0-.18-.13.63.63 0 0 0-.25 0 .67.67 0 0 0-.46.16.59.59 0 0 0-.21.42zM40.78 5.09h.58v.4a.87.87 0 0 1 .28-.34.7.7 0 0 1 .42-.15h.15v.55H42a.64.64 0 0 0-.33.08.59.59 0 0 0-.19.18.64.64 0 0 0-.1.21.84.84 0 0 0 0 .17v1.3h-.6zM42.69 5.57h-.46v-.48h.46v-.36a1.76 1.76 0 0 1 0-.41.94.94 0 0 1 .21-.32.77.77 0 0 1 .3-.24 1.09 1.09 0 0 1 .46-.09H43.97v.51h-.27a.39.39 0 0 0-.21.05.34.34 0 0 0-.12.13.56.56 0 0 0-.06.17 1.22 1.22 0 0 0 0 .19v.39h.55v.48h-.55v1.9h-.6zM45.71 7.18a.67.67 0 0 1-.29.26 1 1 0 0 1-.46.1 1.31 1.31 0 0 1-.3 0 .89.89 0 0 1-.29-.12.73.73 0 0 1-.22-.23.66.66 0 0 1-.15-.39.6.6 0 0 1 .15-.43 1 1 0 0 1 .39-.24 2.22 2.22 0 0 1 .58-.13h.57v-.07a.37.37 0 0 0-.16-.33.69.69 0 0 0-.39-.11.87.87 0 0 0-.37.08 1 1 0 0 0-.29.19l-.31-.36a1.35 1.35 0 0 1 .47-.29A1.61 1.61 0 0 1 45.2 5a1.33 1.33 0 0 1 .53.09.86.86 0 0 1 .33.23.84.84 0 0 1 .17.33 1.4 1.4 0 0 1 0 .36v1.48h-.56zm0-.79h-.44a1.32 1.32 0 0 0-.29.06.64.64 0 0 0-.23.12.27.27 0 0 0-.09.21.25.25 0 0 0 0 .14.29.29 0 0 0 .1.09H45.05a.63.63 0 0 0 .47-.17.62.62 0 0 0 .16-.45zM48.61 5.75a.53.53 0 0 0-.21-.17.65.65 0 0 0-.29-.07.6.6 0 0 0-.29.07.63.63 0 0 0-.21.18.77.77 0 0 0-.12.25 1 1 0 0 0 0 .28.94.94 0 0 0 0 .28.77.77 0 0 0 .13.25.65.65 0 0 0 .21.18.63.63 0 0 0 .3.07.76.76 0 0 0 .28-.07.53.53 0 0 0 .22-.16l.38.38a1 1 0 0 1-.38.25 1.41 1.41 0 0 1-.5.09 1.48 1.48 0 0 1-.5-.08 1.17 1.17 0 0 1-.7-.65 1.33 1.33 0 0 1-.1-.54 1.3 1.3 0 0 1 .1-.52 1.2 1.2 0 0 1 .28-.4 1.24 1.24 0 0 1 .41-.25 1.39 1.39 0 0 1 1 0 1 1 0 0 1 .39.27zM51.7 6.32v.08a.63.63 0 0 1 0 .08h-1.83a.6.6 0 0 0 .22.42.76.76 0 0 0 .21.1.71.71 0 0 0 .25 0 .8.8 0 0 0 .38 0 .71.71 0 0 0 .26-.23l.4.32a1.2 1.2 0 0 1-1 .48 1.46 1.46 0 0 1-.59-.1 1.21 1.21 0 0 1-.41-.25 1.11 1.11 0 0 1-.27-.39 1.35 1.35 0 0 1-.1-.53 1.38 1.38 0 0 1 .1-.53 1.17 1.17 0 0 1 .68-.66 1.35 1.35 0 0 1 .5-.09 1.28 1.28 0 0 1 .5.08 1 1 0 0 1 .37.25 1.14 1.14 0 0 1 .24.41 1.68 1.68 0 0 1 .09.56zM51.1 6a.75.75 0 0 0 0-.22.52.52 0 0 0-.1-.19.5.5 0 0 0-.18-.13.63.63 0 0 0-.25 0 .67.67 0 0 0-.46.16.59.59 0 0 0-.21.42zM54.85 5.79v.36l-2.53 1.13v-.55L54 6l-1.69-.75v-.58zM58.18 5.79v.36l-2.53 1.13v-.55L57.34 6l-1.69-.75v-.58zM32 9.95h.63v3.54H32zM33.33 11.09h.57v.38a.78.78 0 0 1 .28-.32.8.8 0 0 1 .47-.14.91.91 0 0 1 .4.08.79.79 0 0 1 .27.22.87.87 0 0 1 .16.31 1.31 1.31 0 0 1 0 .36v1.5h-.6v-1.32a1.74 1.74 0 0 0 0-.22.6.6 0 0 0-.06-.21.44.44 0 0 0-.14-.15.4.4 0 0 0-.23-.06.52.52 0 0 0-.25.06.53.53 0 0 0-.17.15.65.65 0 0 0-.1.21.83.83 0 0 0 0 .24v1.32h-.6zM35.9 11.57v-.48h.42v-.7h.59v.7h.6v.48h-.6v1.11a.54.54 0 0 0 .06.27q.06.1.26.1h.26v.47h-.4a1 1 0 0 1-.39-.07.59.59 0 0 1-.24-.19.69.69 0 0 1-.12-.27 1.58 1.58 0 0 1 0-.33v-1.09zM40.23 12.32v.08a.63.63 0 0 1 0 .08H38.4a.6.6 0 0 0 .22.42.76.76 0 0 0 .21.12.71.71 0 0 0 .25 0 .8.8 0 0 0 .38-.08.71.71 0 0 0 .26-.23l.4.32a1.2 1.2 0 0 1-1 .48 1.46 1.46 0 0 1-.51-.09 1.21 1.21 0 0 1-.41-.25 1.11 1.11 0 0 1-.27-.39 1.35 1.35 0 0 1-.1-.53 1.38 1.38 0 0 1 .1-.53 1.17 1.17 0 0 1 .67-.67 1.35 1.35 0 0 1 .5-.09 1.28 1.28 0 0 1 .46.08 1 1 0 0 1 .37.25 1.14 1.14 0 0 1 .24.41 1.68 1.68 0 0 1 .06.62zm-.6-.27a.75.75 0 0 0 0-.22.52.52 0 0 0-.1-.19.5.5 0 0 0-.18-.13.63.63 0 0 0-.25 0 .67.67 0 0 0-.46.16.59.59 0 0 0-.21.42zM40.81 11.09h.58v.4a.87.87 0 0 1 .28-.34.7.7 0 0 1 .43-.15h.15v.55h-.18a.64.64 0 0 0-.33.08.59.59 0 0 0-.19.18.64.64 0 0 0-.1.21.84.84 0 0 0 0 .17v1.29h-.6zM42.73 11.57h-.46v-.48h.46v-.35a1.76 1.76 0 0 1 0-.41.94.94 0 0 1 .16-.35.77.77 0 0 1 .3-.24 1.09 1.09 0 0 1 .46-.09H43.96v.51H43.73a.39.39 0 0 0-.21.05.34.34 0 0 0-.12.13.56.56 0 0 0-.06.17 1.22 1.22 0 0 0 0 .19v.39h.55v.48h-.55v1.92h-.6zM45.74 13.18a.67.67 0 0 1-.29.26 1 1 0 0 1-.46.1 1.31 1.31 0 0 1-.3 0 .89.89 0 0 1-.29-.12.73.73 0 0 1-.22-.23.66.66 0 0 1-.09-.35.6.6 0 0 1 .15-.43 1 1 0 0 1 .39-.24 2.22 2.22 0 0 1 .53-.11h.57V12a.37.37 0 0 0-.16-.33.69.69 0 0 0-.39-.11.87.87 0 0 0-.37.08 1 1 0 0 0-.29.19l-.31-.36a1.35 1.35 0 0 1 .47-.29 1.61 1.61 0 0 1 .54-.1 1.33 1.33 0 0 1 .53.09.86.86 0 0 1 .33.23.84.84 0 0 1 .17.33 1.4 1.4 0 0 1 0 .36v1.46h-.56zm0-.79h-.44a1.32 1.32 0 0 0-.29.06.64.64 0 0 0-.23.12.27.27 0 0 0-.09.21.25.25 0 0 0 0 .14.29.29 0 0 0 .1.09H45.08a.63.63 0 0 0 .47-.17.62.62 0 0 0 .16-.45zM48.64 11.75a.53.53 0 0 0-.21-.17.65.65 0 0 0-.29-.07.6.6 0 0 0-.29.07.63.63 0 0 0-.21.18.77.77 0 0 0-.12.25 1 1 0 0 0 0 .28.94.94 0 0 0 0 .28.77.77 0 0 0 .13.25.65.65 0 0 0 .21.18.63.63 0 0 0 .3.07.76.76 0 0 0 .28-.05.53.53 0 0 0 .22-.16l.38.38a1 1 0 0 1-.38.25 1.41 1.41 0 0 1-.5.09 1.48 1.48 0 0 1-.5-.08 1.17 1.17 0 0 1-.7-.65 1.33 1.33 0 0 1-.1-.54 1.3 1.3 0 0 1 .1-.52 1.2 1.2 0 0 1 .28-.4 1.24 1.24 0 0 1 .41-.25 1.39 1.39 0 0 1 1 0 1 1 0 0 1 .39.27zM51.73 12.32v.08a.63.63 0 0 1 0 .08H49.9a.6.6 0 0 0 .22.42.76.76 0 0 0 .21.12.71.71 0 0 0 .25 0A.8.8 0 0 0 51 13a.71.71 0 0 0 .26-.23l.4.32a1.2 1.2 0 0 1-1 .48 1.46 1.46 0 0 1-.51-.09 1.21 1.21 0 0 1-.41-.25 1.11 1.11 0 0 1-.27-.39 1.35 1.35 0 0 1-.1-.53 1.38 1.38 0 0 1 .1-.53 1.17 1.17 0 0 1 .67-.67 1.35 1.35 0 0 1 .5-.09 1.28 1.28 0 0 1 .46.08 1 1 0 0 1 .37.25 1.14 1.14 0 0 1 .24.41 1.68 1.68 0 0 1 .02.56zm-.6-.27a.75.75 0 0 0 0-.22.52.52 0 0 0-.1-.19.5.5 0 0 0-.18-.13.63.63 0 0 0-.25 0 .67.67 0 0 0-.46.16.59.59 0 0 0-.21.42zM97.71 33.06v-.36l2.53-1.12v.55l-1.69.75 1.69.76v.55zM101 33.06v-.36l2.53-1.12v.55l-1.69.75 1.69.76v.55zM104.26 31.18a.34.34 0 0 1 .11-.25.37.37 0 0 1 .27-.11.4.4 0 0 1 .28.1.35.35 0 0 1 0 .52.4.4 0 0 1-.28.1.37.37 0 0 1-.27-.11.35.35 0 0 1-.11-.25zm.08.81h.6v2.4h-.6zM105.67 32h.57v.38a.78.78 0 0 1 .28-.32.8.8 0 0 1 .47-.14.91.91 0 0 1 .4.08.79.79 0 0 1 .27.22.87.87 0 0 1 .16.31 1.31 1.31 0 0 1 0 .36v1.5h-.6v-1.33a1.74 1.74 0 0 0 0-.22.6.6 0 0 0-.06-.21.44.44 0 0 0-.14-.15.4.4 0 0 0-.23-.06.52.52 0 0 0-.25.06.53.53 0 0 0-.17.15.65.65 0 0 0-.1.21.83.83 0 0 0 0 .24v1.32h-.6zM108.24 32.47V32h.42v-.7h.59v.7h.6v.48h-.6v1.11a.54.54 0 0 0 .06.27q.06.1.26.1h.26v.47h-.4a1 1 0 0 1-.39-.07.59.59 0 0 1-.24-.19.69.69 0 0 1-.12-.27 1.58 1.58 0 0 1 0-.33v-1.1zM112.57 33.22v.08a.63.63 0 0 1 0 .08h-1.83a.6.6 0 0 0 .22.42.76.76 0 0 0 .21.12.71.71 0 0 0 .25 0 .8.8 0 0 0 .38-.08.71.71 0 0 0 .26-.23l.4.32a1.2 1.2 0 0 1-1 .48 1.46 1.46 0 0 1-.51-.09 1.21 1.21 0 0 1-.41-.25 1.11 1.11 0 0 1-.27-.39 1.35 1.35 0 0 1-.1-.53 1.38 1.38 0 0 1 .1-.53 1.17 1.17 0 0 1 .67-.67 1.35 1.35 0 0 1 .5-.09 1.28 1.28 0 0 1 .46.08 1 1 0 0 1 .37.25 1.14 1.14 0 0 1 .24.41 1.68 1.68 0 0 1 .06.62zM112 33a.75.75 0 0 0 0-.22.52.52 0 0 0-.1-.19.5.5 0 0 0-.18-.13.63.63 0 0 0-.25 0 .67.67 0 0 0-.46.16.59.59 0 0 0-.21.42zM113.15 32h.58v.4a.87.87 0 0 1 .28-.34.7.7 0 0 1 .42-.13h.15v.55h-.18a.64.64 0 0 0-.33.08.59.59 0 0 0-.19.18.64.64 0 0 0-.1.21.84.84 0 0 0 0 .17v1.29h-.6zM115.07 32.47h-.46V32h.46v-.35a1.76 1.76 0 0 1 0-.41.94.94 0 0 1 .16-.35.77.77 0 0 1 .3-.24 1.09 1.09 0 0 1 .46-.09H116.3v.51H116.07a.39.39 0 0 0-.21.05.34.34 0 0 0-.12.13.56.56 0 0 0-.06.17 1.22 1.22 0 0 0 0 .19V32h.55v.48h-.55v1.92h-.6zM118.08 34.09a.67.67 0 0 1-.29.26 1 1 0 0 1-.46.1 1.31 1.31 0 0 1-.3 0 .89.89 0 0 1-.29-.12.73.73 0 0 1-.22-.23.66.66 0 0 1-.09-.35.6.6 0 0 1 .15-.43A1 1 0 0 1 117 33a2.22 2.22 0 0 1 .53-.11h.57v-.06a.37.37 0 0 0-.16-.33.69.69 0 0 0-.39-.11.87.87 0 0 0-.37.08 1 1 0 0 0-.29.19l-.31-.36a1.35 1.35 0 0 1 .42-.3 1.61 1.61 0 0 1 .54-.1 1.33 1.33 0 0 1 .53.09.86.86 0 0 1 .33.23.84.84 0 0 1 .17.33 1.4 1.4 0 0 1 0 .36v1.46h-.56zm0-.79h-.44a1.32 1.32 0 0 0-.29.06.64.64 0 0 0-.23.12.27.27 0 0 0-.09.21.25.25 0 0 0 0 .14.29.29 0 0 0 .1.09H117.42a.63.63 0 0 0 .47-.17.62.62 0 0 0 .16-.45zM121 32.66a.53.53 0 0 0-.21-.17.65.65 0 0 0-.29-.07.6.6 0 0 0-.29.07.63.63 0 0 0-.21.18.77.77 0 0 0-.12.25 1 1 0 0 0 0 .28.94.94 0 0 0 0 .28.77.77 0 0 0 .13.25.65.65 0 0 0 .21.18.63.63 0 0 0 .3.07.76.76 0 0 0 .28-.05.53.53 0 0 0 .22-.16l.38.38a1 1 0 0 1-.38.25 1.41 1.41 0 0 1-.5.09 1.48 1.48 0 0 1-.5-.08 1.17 1.17 0 0 1-.7-.65 1.33 1.33 0 0 1-.1-.54 1.3 1.3 0 0 1 .1-.52 1.2 1.2 0 0 1 .28-.4 1.24 1.24 0 0 1 .4-.3 1.39 1.39 0 0 1 1 0 1 1 0 0 1 .39.27zM124.07 33.22v.08a.63.63 0 0 1 0 .08h-1.83a.6.6 0 0 0 .22.42.76.76 0 0 0 .21.12.71.71 0 0 0 .25 0 .8.8 0 0 0 .38-.08.71.71 0 0 0 .26-.23l.4.32a1.2 1.2 0 0 1-1 .48 1.46 1.46 0 0 1-.51-.09 1.21 1.21 0 0 1-.41-.25 1.11 1.11 0 0 1-.27-.39 1.35 1.35 0 0 1-.1-.53 1.38 1.38 0 0 1 .1-.53 1.17 1.17 0 0 1 .67-.67 1.35 1.35 0 0 1 .5-.09 1.28 1.28 0 0 1 .46.08 1 1 0 0 1 .37.25 1.14 1.14 0 0 1 .24.41 1.68 1.68 0 0 1 .06.62zm-.6-.27a.75.75 0 0 0 0-.22.52.52 0 0 0-.1-.19.5.5 0 0 0-.18-.13.63.63 0 0 0-.25 0 .67.67 0 0 0-.46.16.59.59 0 0 0-.21.42zM127.22 32.7v.36l-2.53 1.13v-.55l1.69-.76-1.69-.75v-.55zM130.55 32.7v.36L128 34.18v-.55l1.69-.76-1.69-.75v-.55zM104.33 36.85h.67v3.54h-.63zM105.71 38h.57v.38a.78.78 0 0 1 .28-.32.8.8 0 0 1 .47-.14.91.91 0 0 1 .4.08.79.79 0 0 1 .27.22.87.87 0 0 1 .16.31 1.31 1.31 0 0 1 0 .36v1.5h-.6v-1.33a1.74 1.74 0 0 0 0-.22.6.6 0 0 0-.06-.21.44.44 0 0 0-.14-.15.4.4 0 0 0-.23-.06.52.52 0 0 0-.25.06.53.53 0 0 0-.17.15.65.65 0 0 0-.1.21.83.83 0 0 0 0 .24v1.32h-.6zM108.27 38.47V38h.42v-.7h.59v.7h.6v.48h-.6v1.11a.54.54 0 0 0 .06.27q.06.1.26.1h.26v.47h-.4a1 1 0 0 1-.39-.07.59.59 0 0 1-.24-.19.69.69 0 0 1-.12-.27 1.58 1.58 0 0 1 0-.33v-1.1zM112.61 39.22v.08a.63.63 0 0 1 0 .08h-1.83a.6.6 0 0 0 .22.42.76.76 0 0 0 .21.12.71.71 0 0 0 .25 0 .8.8 0 0 0 .38-.08.71.71 0 0 0 .26-.23l.4.32a1.2 1.2 0 0 1-1 .48 1.46 1.46 0 0 1-.51-.09 1.21 1.21 0 0 1-.41-.25 1.11 1.11 0 0 1-.27-.39 1.35 1.35 0 0 1-.1-.53 1.38 1.38 0 0 1 .1-.53 1.17 1.17 0 0 1 .67-.67 1.35 1.35 0 0 1 .5-.09 1.28 1.28 0 0 1 .46.08 1 1 0 0 1 .37.25 1.14 1.14 0 0 1 .24.41 1.68 1.68 0 0 1 .06.62zM112 39a.75.75 0 0 0 0-.22.52.52 0 0 0-.1-.19.5.5 0 0 0-.18-.13.63.63 0 0 0-.25 0 .67.67 0 0 0-.46.16.59.59 0 0 0-.21.42zM113.19 38h.58v.4a.87.87 0 0 1 .28-.34.7.7 0 0 1 .42-.13h.15v.55h-.18a.64.64 0 0 0-.33.08.59.59 0 0 0-.19.18.64.64 0 0 0-.1.21.84.84 0 0 0 0 .17v1.29h-.6zM115.1 38.47h-.46V38h.46v-.35a1.76 1.76 0 0 1 0-.41.94.94 0 0 1 .16-.35.77.77 0 0 1 .3-.24 1.09 1.09 0 0 1 .46-.09H116.33v.51H116.1a.39.39 0 0 0-.21.05.34.34 0 0 0-.12.13.56.56 0 0 0-.06.17 1.22 1.22 0 0 0 0 .19V38h.55v.48h-.55v1.92h-.6zM118.12 40.09a.67.67 0 0 1-.29.26 1 1 0 0 1-.46.1 1.31 1.31 0 0 1-.3 0 .89.89 0 0 1-.29-.12.73.73 0 0 1-.22-.23.66.66 0 0 1-.09-.35.6.6 0 0 1 .15-.43A1 1 0 0 1 117 39a2.22 2.22 0 0 1 .53-.11h.57v-.06a.37.37 0 0 0-.16-.33.69.69 0 0 0-.39-.11.87.87 0 0 0-.37.08 1 1 0 0 0-.29.19l-.31-.36a1.35 1.35 0 0 1 .47-.29 1.61 1.61 0 0 1 .54-.1 1.33 1.33 0 0 1 .53.09.86.86 0 0 1 .33.23.84.84 0 0 1 .17.33 1.4 1.4 0 0 1 0 .36v1.46h-.56zm0-.79h-.44a1.32 1.32 0 0 0-.29.06.64.64 0 0 0-.23.12.27.27 0 0 0-.09.21.25.25 0 0 0 0 .14.29.29 0 0 0 .1.09H117.46a.63.63 0 0 0 .47-.17.62.62 0 0 0 .16-.45zM121 38.66a.53.53 0 0 0-.21-.17.65.65 0 0 0-.29-.07.6.6 0 0 0-.29.07.63.63 0 0 0-.21.18.77.77 0 0 0-.12.25 1 1 0 0 0 0 .28.94.94 0 0 0 0 .28.77.77 0 0 0 .13.25.65.65 0 0 0 .21.18.63.63 0 0 0 .3.07.76.76 0 0 0 .28-.05.53.53 0 0 0 .22-.16l.38.38a1 1 0 0 1-.38.25 1.41 1.41 0 0 1-.5.09 1.48 1.48 0 0 1-.5-.08 1.17 1.17 0 0 1-.7-.65 1.33 1.33 0 0 1-.1-.54 1.3 1.3 0 0 1 .1-.52 1.2 1.2 0 0 1 .28-.4 1.24 1.24 0 0 1 .4-.3 1.39 1.39 0 0 1 1 0 1 1 0 0 1 .39.27zM124.11 39.22v.08a.64.64 0 0 1 0 .08h-1.83a.6.6 0 0 0 .22.42.76.76 0 0 0 .21.12.71.71 0 0 0 .25 0 .8.8 0 0 0 .38-.08.71.71 0 0 0 .26-.23l.4.32a1.2 1.2 0 0 1-1 .48 1.46 1.46 0 0 1-.51-.09 1.21 1.21 0 0 1-.41-.25 1.11 1.11 0 0 1-.27-.39 1.35 1.35 0 0 1-.1-.53 1.38 1.38 0 0 1 .1-.53 1.17 1.17 0 0 1 .67-.67 1.35 1.35 0 0 1 .5-.09 1.28 1.28 0 0 1 .46.08 1 1 0 0 1 .37.25 1.14 1.14 0 0 1 .24.41 1.68 1.68 0 0 1 .06.62zm-.6-.27a.75.75 0 0 0 0-.22.52.52 0 0 0-.1-.19.5.5 0 0 0-.18-.13.63.63 0 0 0-.25 0 .67.67 0 0 0-.46.16.59.59 0 0 0-.21.42zM5.21 28v-1.1h.51V28h1.1v.51h-1.1v1.1h-.51v-1.1h-1.1V28zM10.23 29.5a.67.67 0 0 1-.29.26 1 1 0 0 1-.46.1 1.31 1.31 0 0 1-.3 0 .89.89 0 0 1-.29-.12.73.73 0 0 1-.22-.23.66.66 0 0 1-.09-.35.6.6 0 0 1 .15-.43 1 1 0 0 1 .39-.24 2.22 2.22 0 0 1 .53-.11h.57v-.06a.37.37 0 0 0-.16-.33.69.69 0 0 0-.39-.11.87.87 0 0 0-.37.08 1 1 0 0 0-.29.19l-.31-.36a1.35 1.35 0 0 1 .47-.29 1.61 1.61 0 0 1 .54-.1 1.33 1.33 0 0 1 .53.09.86.86 0 0 1 .33.23.84.84 0 0 1 .17.33 1.4 1.4 0 0 1 0 .36v1.39h-.56zm0-.79h-.45a1.32 1.32 0 0 0-.29.06.64.64 0 0 0-.23.12.27.27 0 0 0-.09.21.25.25 0 0 0 0 .14.29.29 0 0 0 .1.09H9.56a.63.63 0 0 0 .47-.17.62.62 0 0 0 .16-.45zM11.1 27.88v-.48h.42v-.7h.59v.7h.6v.48h-.6V29a.54.54 0 0 0 .06.27q.06.1.26.1h.26v.47h-.4a1 1 0 0 1-.39-.07.59.59 0 0 1-.24-.19.69.69 0 0 1-.12-.27 1.58 1.58 0 0 1 0-.33v-1.1zM12.72 27.88v-.48h.42v-.7h.59v.7h.6v.48h-.6V29a.54.54 0 0 0 .06.27q.06.1.26.1h.26v.47h-.4a1 1 0 0 1-.39-.07.59.59 0 0 1-.24-.19.69.69 0 0 1-.12-.27 1.58 1.58 0 0 1 0-.33v-1.1zM14.77 27.4h.58v.4a.87.87 0 0 1 .28-.34.7.7 0 0 1 .42-.13h.15v.55H16a.64.64 0 0 0-.33.08.59.59 0 0 0-.19.18.64.64 0 0 0-.1.21.84.84 0 0 0 0 .17v1.28h-.6zM16.51 26.59a.34.34 0 0 1 .11-.25.37.37 0 0 1 .27-.11.4.4 0 0 1 .28.1.35.35 0 0 1 0 .52.4.4 0 0 1-.28.1.37.37 0 0 1-.27-.11.35.35 0 0 1-.11-.25zm.08.81h.6v2.4h-.6zM18.54 26v1.68l.12-.12.17-.12a1.05 1.05 0 0 1 .23-.09 1.07 1.07 0 0 1 .29 0 1.12 1.12 0 0 1 .84.37 1.2 1.2 0 0 1 .24.4 1.42 1.42 0 0 1 .08.5 1.47 1.47 0 0 1-.08.5 1.22 1.22 0 0 1-.23.4 1.13 1.13 0 0 1-.37.27 1.14 1.14 0 0 1-.49.1 1.06 1.06 0 0 1-.48-.11.81.81 0 0 1-.35-.32v.36h-.57V26zm1.38 2.57a1 1 0 0 0 0-.28.78.78 0 0 0-.13-.25.64.64 0 0 0-.21-.18.66.66 0 0 0-.31-.07.62.62 0 0 0-.29.07.76.76 0 0 0-.36.43.86.86 0 0 0 0 .28.84.84 0 0 0 0 .28.77.77 0 0 0 .14.25.72.72 0 0 0 .22.18.69.69 0 0 0 .6 0 .66.66 0 0 0 .21-.18.78.78 0 0 0 .13-.25 1 1 0 0 0-.01-.26zM23.29 29.8h-.57v-.38a.78.78 0 0 1-.28.32.8.8 0 0 1-.47.14.9.9 0 0 1-.4-.08.79.79 0 0 1-.27-.22.87.87 0 0 1-.16-.31 1.29 1.29 0 0 1-.05-.36V27.4h.6v1.33a1.66 1.66 0 0 0 0 .22.59.59 0 0 0 .06.21.42.42 0 0 0 .14.15.4.4 0 0 0 .23.06.52.52 0 0 0 .25-.06.53.53 0 0 0 .17-.15.66.66 0 0 0 .1-.21.83.83 0 0 0 0-.24V27.4h.6zM23.67 27.88v-.48h.42v-.7h.59v.7h.6v.48h-.6V29a.54.54 0 0 0 .06.27q.06.1.26.1h.26v.47h-.4a1 1 0 0 1-.39-.07.59.59 0 0 1-.24-.19.69.69 0 0 1-.12-.27 1.58 1.58 0 0 1 0-.33v-1.1zM28 28.63v.08a.63.63 0 0 1 0 .08h-1.83a.6.6 0 0 0 .22.42.76.76 0 0 0 .21.12.71.71 0 0 0 .25 0 .8.8 0 0 0 .38-.08.71.71 0 0 0 .26-.23l.4.32a1.2 1.2 0 0 1-1 .48 1.46 1.46 0 0 1-.51-.09 1.21 1.21 0 0 1-.41-.25 1.11 1.11 0 0 1-.27-.39 1.35 1.35 0 0 1-.1-.53 1.38 1.38 0 0 1 .1-.53 1.17 1.17 0 0 1 .67-.67 1.35 1.35 0 0 1 .5-.09 1.28 1.28 0 0 1 .46.08 1 1 0 0 1 .37.25 1.14 1.14 0 0 1 .24.41 1.68 1.68 0 0 1 .06.62zm-.6-.27a.75.75 0 0 0 0-.22.52.52 0 0 0-.1-.19.5.5 0 0 0-.18-.13.63.63 0 0 0-.25 0 .67.67 0 0 0-.46.16.59.59 0 0 0-.21.42zM29.62 27l-.7.58-.35-.42 1.1-.89h.54v3.53h-.6zM31.62 27.76a.37.37 0 0 1 .12-.27.39.39 0 0 1 .28-.12.4.4 0 0 1 .28.11.35.35 0 0 1 .12.27.37.37 0 0 1-.12.27.41.41 0 0 1-.44.08.44.44 0 0 1-.13-.08.37.37 0 0 1-.09-.12.35.35 0 0 1-.02-.14zm0 1.69a.37.37 0 0 1 .12-.27.39.39 0 0 1 .28-.12.4.4 0 0 1 .28.11.35.35 0 0 1 .12.27.37.37 0 0 1-.12.27.41.41 0 0 1-.44.08.44.44 0 0 1-.13-.08.37.37 0 0 1-.09-.12.35.35 0 0 1-.02-.14zM32.79 27.88v-.48h.42v-.7h.59v.7h.6v.48h-.6V29a.54.54 0 0 0 .06.27q.06.1.26.1h.26v.47h-.4a1 1 0 0 1-.39-.07.59.59 0 0 1-.24-.19.69.69 0 0 1-.12-.27 1.58 1.58 0 0 1 0-.33v-1.1zM34.47 27.4h.67l.67 1.75.59-1.75h.6l-1.1 2.92a2.13 2.13 0 0 1-.14.29.8.8 0 0 1-.18.21.72.72 0 0 1-.25.13A1.13 1.13 0 0 1 35 31h-.31v-.52h.47a.27.27 0 0 0 .11-.07.48.48 0 0 0 .08-.12l.08-.17.12-.31zM38 27.4v.33a.85.85 0 0 1 .12-.14.76.76 0 0 1 .18-.13 1.11 1.11 0 0 1 .24-.1 1.1 1.1 0 0 1 .3 0 1.12 1.12 0 0 1 .84.37 1.21 1.21 0 0 1 .24.4 1.42 1.42 0 0 1 .08.5 1.47 1.47 0 0 1-.08.5 1.21 1.21 0 0 1-.23.4 1.12 1.12 0 0 1-.37.27 1.14 1.14 0 0 1-.49.1 1 1 0 0 1-.47-.1.8.8 0 0 1-.33-.28V31h-.6v-3.6zm1.4 1.19a.93.93 0 0 0 0-.28.77.77 0 0 0-.13-.25.64.64 0 0 0-.21-.18.66.66 0 0 0-.31-.07.61.61 0 0 0-.29.07.76.76 0 0 0-.22.18.77.77 0 0 0-.14.25.86.86 0 0 0 0 .28.84.84 0 0 0 0 .28.78.78 0 0 0 .14.25.72.72 0 0 0 .22.18.69.69 0 0 0 .6 0 .67.67 0 0 0 .21-.18.77.77 0 0 0 .13-.25 1 1 0 0 0-.03-.28zM42.85 28.63v.08a.63.63 0 0 1 0 .08H41a.6.6 0 0 0 .22.42.76.76 0 0 0 .21.12.71.71 0 0 0 .25 0 .8.8 0 0 0 .38-.08.71.71 0 0 0 .26-.23l.4.32a1.2 1.2 0 0 1-1 .48 1.46 1.46 0 0 1-.51-.09 1.21 1.21 0 0 1-.41-.25 1.11 1.11 0 0 1-.27-.39 1.35 1.35 0 0 1-.1-.53 1.38 1.38 0 0 1 .1-.53 1.17 1.17 0 0 1 .67-.67 1.35 1.35 0 0 1 .5-.09 1.28 1.28 0 0 1 .46.08 1 1 0 0 1 .37.25 1.14 1.14 0 0 1 .24.41 1.68 1.68 0 0 1 .08.62zm-.6-.27a.75.75 0 0 0 0-.22.52.52 0 0 0-.1-.19.5.5 0 0 0-.18-.13.63.63 0 0 0-.25 0 .67.67 0 0 0-.46.16.59.59 0 0 0-.21.42zM47.25 27.58v.51h-2.53v-.51zm0 .9V29h-2.53v-.51zM51.7 29.8h-.57v-.36a.82.82 0 0 1-.35.32 1.06 1.06 0 0 1-.48.11 1.14 1.14 0 0 1-.49-.1 1.12 1.12 0 0 1-.37-.27 1.22 1.22 0 0 1-.24-.4 1.49 1.49 0 0 1-.08-.5 1.42 1.42 0 0 1 .08-.5 1.2 1.2 0 0 1 .24-.4 1.12 1.12 0 0 1 .84-.37 1.06 1.06 0 0 1 .29 0 1.05 1.05 0 0 1 .23.09l.17.12.12.13V26h.6zm-2-1.21a1 1 0 0 0 0 .28.77.77 0 0 0 .13.25.66.66 0 0 0 .21.18.69.69 0 0 0 .6 0 .73.73 0 0 0 .22-.18.77.77 0 0 0 .14-.25.84.84 0 0 0 0-.28.86.86 0 0 0 0-.28.76.76 0 0 0-.36-.43.62.62 0 0 0-.29-.07.66.66 0 0 0-.31.07.64.64 0 0 0-.21.18.77.77 0 0 0-.13.25.93.93 0 0 0 .03.28zM54.72 28.63v.08a.63.63 0 0 1 0 .08h-1.83a.6.6 0 0 0 .22.42.76.76 0 0 0 .21.12.71.71 0 0 0 .25 0 .8.8 0 0 0 .43-.03.71.71 0 0 0 .26-.23l.4.32a1.2 1.2 0 0 1-1 .48 1.46 1.46 0 0 1-.51-.09 1.21 1.21 0 0 1-.41-.25 1.11 1.11 0 0 1-.27-.39 1.35 1.35 0 0 1-.1-.53 1.38 1.38 0 0 1 .1-.53 1.17 1.17 0 0 1 .67-.67 1.35 1.35 0 0 1 .5-.09 1.28 1.28 0 0 1 .46.08 1 1 0 0 1 .37.25 1.14 1.14 0 0 1 .24.41 1.68 1.68 0 0 1 .01.57zm-.6-.27a.75.75 0 0 0 0-.22A.52.52 0 0 0 54 28a.5.5 0 0 0-.18-.13.63.63 0 0 0-.25 0 .67.67 0 0 0-.46.16.59.59 0 0 0-.21.42zM55.4 27.88h-.46v-.48h.46V27a1.76 1.76 0 0 1 0-.41.94.94 0 0 1 .16-.35.77.77 0 0 1 .3-.24 1.09 1.09 0 0 1 .46-.09H56.63v.51H56.4a.39.39 0 0 0-.21.05.34.34 0 0 0-.12.13.56.56 0 0 0-.06.17A1.22 1.22 0 0 0 56 27v.39h.55v.48H56v1.93h-.6zM58.41 29.5a.67.67 0 0 1-.29.26 1 1 0 0 1-.46.1 1.31 1.31 0 0 1-.3 0 .89.89 0 0 1-.29-.12.73.73 0 0 1-.22-.23.66.66 0 0 1-.09-.35.6.6 0 0 1 .15-.43 1 1 0 0 1 .39-.24 2.22 2.22 0 0 1 .53-.11h.57v-.06a.37.37 0 0 0-.16-.33.69.69 0 0 0-.39-.11.87.87 0 0 0-.37.08 1 1 0 0 0-.29.19l-.31-.36a1.35 1.35 0 0 1 .47-.29 1.61 1.61 0 0 1 .54-.1 1.33 1.33 0 0 1 .53.09.86.86 0 0 1 .33.23.84.84 0 0 1 .17.33 1.4 1.4 0 0 1 0 .36v1.39h-.56zm0-.79H58a1.32 1.32 0 0 0-.29.06.64.64 0 0 0-.23.12.27.27 0 0 0-.09.21.25.25 0 0 0 0 .14.29.29 0 0 0 .1.09H57.78a.63.63 0 0 0 .47-.17.62.62 0 0 0 .16-.45zM61.86 29.8h-.57v-.38a.78.78 0 0 1-.28.32.8.8 0 0 1-.47.14.9.9 0 0 1-.4-.08.79.79 0 0 1-.27-.22.87.87 0 0 1-.16-.31 1.29 1.29 0 0 1-.05-.36V27.4h.6v1.33a1.66 1.66 0 0 0 0 .22.59.59 0 0 0 .06.21.42.42 0 0 0 .14.15.4.4 0 0 0 .23.06.52.52 0 0 0 .25-.06.53.53 0 0 0 .17-.15.66.66 0 0 0 .1-.21.83.83 0 0 0 0-.24V27.4h.6zM62.59 26h.6v3.8h-.6zM63.58 27.88v-.48H64v-.7h.59v.7h.6v.48h-.6V29a.54.54 0 0 0 .06.27q.06.1.26.1h.22v.47h-.4a1 1 0 0 1-.39-.07.59.59 0 0 1-.24-.19.69.69 0 0 1-.12-.27A1.58 1.58 0 0 1 64 29v-1.12zM65.21 26.26h.7l1 2.73 1-2.73h.68l-1.43 3.54h-.54zM70.17 29.5a.67.67 0 0 1-.29.26 1 1 0 0 1-.46.1 1.31 1.31 0 0 1-.3 0 .89.89 0 0 1-.29-.12.73.73 0 0 1-.22-.23.66.66 0 0 1-.09-.35.6.6 0 0 1 .15-.43 1 1 0 0 1 .39-.24 2.22 2.22 0 0 1 .53-.11h.57v-.06a.37.37 0 0 0-.16-.33.69.69 0 0 0-.39-.11.87.87 0 0 0-.37.08 1 1 0 0 0-.29.19l-.31-.36a1.35 1.35 0 0 1 .47-.29 1.61 1.61 0 0 1 .54-.1 1.33 1.33 0 0 1 .53.09.86.86 0 0 1 .33.23.84.84 0 0 1 .17.33 1.4 1.4 0 0 1 0 .36v1.39h-.56zm0-.79h-.44a1.32 1.32 0 0 0-.29.06.64.64 0 0 0-.23.12.27.27 0 0 0-.09.21.25.25 0 0 0 0 .14.29.29 0 0 0 .1.09H69.51a.63.63 0 0 0 .47-.17.62.62 0 0 0 .16-.45zM71.44 26H72v3.8h-.6zM75 29.8h-.57v-.38a.78.78 0 0 1-.28.32.8.8 0 0 1-.47.14.9.9 0 0 1-.4-.08.79.79 0 0 1-.27-.22.87.87 0 0 1-.16-.31 1.29 1.29 0 0 1-.05-.36V27.4h.6v1.33a1.66 1.66 0 0 0 0 .22.59.59 0 0 0 .06.21.42.42 0 0 0 .14.15.4.4 0 0 0 .23.06.52.52 0 0 0 .25-.06.53.53 0 0 0 .17-.15.66.66 0 0 0 .1-.21.83.83 0 0 0 0-.24V27.4H75zM78 28.63v.08a.63.63 0 0 1 0 .08h-1.87a.6.6 0 0 0 .22.42.76.76 0 0 0 .21.12.71.71 0 0 0 .25 0 .8.8 0 0 0 .38-.08.71.71 0 0 0 .26-.23l.4.32a1.2 1.2 0 0 1-1 .48 1.46 1.46 0 0 1-.51-.09 1.21 1.21 0 0 1-.41-.25 1.11 1.11 0 0 1-.27-.39 1.35 1.35 0 0 1-.1-.53 1.38 1.38 0 0 1 .1-.53 1.17 1.17 0 0 1 .67-.67 1.35 1.35 0 0 1 .5-.09 1.28 1.28 0 0 1 .46.08 1 1 0 0 1 .37.25 1.14 1.14 0 0 1 .24.41 1.68 1.68 0 0 1 .1.62zm-.6-.27a.75.75 0 0 0 0-.22.52.52 0 0 0-.1-.19.5.5 0 0 0-.18-.13.63.63 0 0 0-.25 0 .67.67 0 0 0-.46.16.59.59 0 0 0-.21.42zM5.21 34v-1.1h.51V34h1.1v.51h-1.1v1.1h-.51v-1.1h-1.1V34zM10.23 35.5a.67.67 0 0 1-.29.26 1 1 0 0 1-.46.1 1.31 1.31 0 0 1-.3 0 .89.89 0 0 1-.29-.12.73.73 0 0 1-.22-.23.66.66 0 0 1-.09-.35.6.6 0 0 1 .15-.43 1 1 0 0 1 .39-.24 2.22 2.22 0 0 1 .53-.11h.57v-.06a.37.37 0 0 0-.16-.33.69.69 0 0 0-.39-.11.87.87 0 0 0-.37.08 1 1 0 0 0-.29.19l-.31-.36a1.35 1.35 0 0 1 .47-.29 1.61 1.61 0 0 1 .54-.1 1.33 1.33 0 0 1 .53.09.86.86 0 0 1 .33.23.84.84 0 0 1 .17.33 1.4 1.4 0 0 1 0 .36v1.39h-.56zm0-.79h-.45a1.32 1.32 0 0 0-.29.06.64.64 0 0 0-.23.12.27.27 0 0 0-.09.21.25.25 0 0 0 0 .14.29.29 0 0 0 .1.09H9.56a.63.63 0 0 0 .47-.17.62.62 0 0 0 .16-.45zM11.1 33.88v-.48h.42v-.7h.59v.7h.6v.48h-.6V35a.54.54 0 0 0 .06.27q.06.1.26.1h.26v.47h-.4a1 1 0 0 1-.39-.07.59.59 0 0 1-.24-.19.69.69 0 0 1-.12-.27 1.58 1.58 0 0 1 0-.33v-1.1zM12.72 33.88v-.48h.42v-.7h.59v.7h.6v.48h-.6V35a.54.54 0 0 0 .06.27q.06.1.26.1h.26v.47h-.4a1 1 0 0 1-.39-.07.59.59 0 0 1-.24-.19.69.69 0 0 1-.12-.27 1.58 1.58 0 0 1 0-.33v-1.1zM14.77 33.4h.58v.4a.87.87 0 0 1 .28-.34.7.7 0 0 1 .42-.13h.15v.55H16a.64.64 0 0 0-.33.08.59.59 0 0 0-.19.18.64.64 0 0 0-.1.21.84.84 0 0 0 0 .17v1.28h-.6zM16.51 32.59a.34.34 0 0 1 .11-.25.37.37 0 0 1 .27-.11.4.4 0 0 1 .28.1.35.35 0 0 1 0 .52.4.4 0 0 1-.28.1.37.37 0 0 1-.27-.11.35.35 0 0 1-.11-.25zm.08.81h.6v2.4h-.6zM18.54 32v1.68l.12-.12.17-.12a1.05 1.05 0 0 1 .23-.09 1.07 1.07 0 0 1 .29 0 1.12 1.12 0 0 1 .84.37 1.2 1.2 0 0 1 .24.4 1.42 1.42 0 0 1 .08.5 1.47 1.47 0 0 1-.08.5 1.22 1.22 0 0 1-.23.4 1.13 1.13 0 0 1-.37.27 1.14 1.14 0 0 1-.49.1 1.06 1.06 0 0 1-.48-.11.81.81 0 0 1-.35-.32v.36h-.57V32zm1.38 2.57a1 1 0 0 0 0-.28.78.78 0 0 0-.13-.25.64.64 0 0 0-.21-.18.66.66 0 0 0-.31-.07.62.62 0 0 0-.29.07.76.76 0 0 0-.36.43.86.86 0 0 0 0 .28.84.84 0 0 0 0 .28.77.77 0 0 0 .14.25.72.72 0 0 0 .22.18.69.69 0 0 0 .6 0 .66.66 0 0 0 .21-.18.78.78 0 0 0 .13-.25 1 1 0 0 0-.01-.26zM23.29 35.8h-.57v-.38a.78.78 0 0 1-.28.32.8.8 0 0 1-.47.14.9.9 0 0 1-.4-.08.79.79 0 0 1-.27-.22.87.87 0 0 1-.16-.31 1.29 1.29 0 0 1-.05-.36V33.4h.6v1.33a1.66 1.66 0 0 0 0 .22.59.59 0 0 0 .06.21.42.42 0 0 0 .14.15.4.4 0 0 0 .23.06.52.52 0 0 0 .25-.06.53.53 0 0 0 .17-.15.66.66 0 0 0 .1-.21.83.83 0 0 0 0-.24V33.4h.6zM23.67 33.88v-.48h.42v-.7h.59v.7h.6v.48h-.6V35a.54.54 0 0 0 .06.27q.06.1.26.1h.26v.47h-.4a1 1 0 0 1-.39-.07.59.59 0 0 1-.24-.19.69.69 0 0 1-.12-.27 1.58 1.58 0 0 1 0-.33v-1.1zM28 34.63v.08a.63.63 0 0 1 0 .08h-1.83a.6.6 0 0 0 .22.42.76.76 0 0 0 .21.12.71.71 0 0 0 .25 0 .8.8 0 0 0 .38-.08.71.71 0 0 0 .26-.23l.4.32a1.2 1.2 0 0 1-1 .48 1.46 1.46 0 0 1-.51-.09 1.21 1.21 0 0 1-.41-.25 1.11 1.11 0 0 1-.27-.39 1.35 1.35 0 0 1-.1-.53 1.38 1.38 0 0 1 .1-.53 1.17 1.17 0 0 1 .67-.67 1.35 1.35 0 0 1 .5-.09 1.28 1.28 0 0 1 .46.08 1 1 0 0 1 .37.25 1.14 1.14 0 0 1 .24.41 1.68 1.68 0 0 1 .06.62zm-.6-.27a.75.75 0 0 0 0-.22.52.52 0 0 0-.1-.19.5.5 0 0 0-.18-.13.63.63 0 0 0-.25 0 .67.67 0 0 0-.46.16.59.59 0 0 0-.21.42zM28.57 35.25l1.36-1.34a1.6 1.6 0 0 0 .26-.32.71.71 0 0 0 .1-.37.51.51 0 0 0-.16-.4.58.58 0 0 0-.4-.15.52.52 0 0 0-.41.17.79.79 0 0 0-.19.43l-.58-.09a1.11 1.11 0 0 1 .13-.4 1.14 1.14 0 0 1 .26-.32 1.16 1.16 0 0 1 .36-.21 1.29 1.29 0 0 1 .45-.08 1.5 1.5 0 0 1 .44.06 1.13 1.13 0 0 1 .38.2.95.95 0 0 1 .36.77 1.08 1.08 0 0 1 0 .32 1.24 1.24 0 0 1-.12.28 1.68 1.68 0 0 1-.18.25l-.22.23-1 1h1.6v.55h-2.44zM31.62 33.76a.37.37 0 0 1 .12-.27.39.39 0 0 1 .28-.12.4.4 0 0 1 .28.11.35.35 0 0 1 .12.27.37.37 0 0 1-.12.27.41.41 0 0 1-.44.08.44.44 0 0 1-.13-.08.37.37 0 0 1-.09-.12.35.35 0 0 1-.02-.14zm0 1.69a.37.37 0 0 1 .12-.27.39.39 0 0 1 .28-.12.4.4 0 0 1 .28.11.35.35 0 0 1 .12.27.37.37 0 0 1-.12.27.41.41 0 0 1-.44.08.44.44 0 0 1-.13-.08.37.37 0 0 1-.09-.12.35.35 0 0 1-.02-.14zM32.79 33.88v-.48h.42v-.7h.59v.7h.6v.48h-.6V35a.54.54 0 0 0 .06.27q.06.1.26.1h.26v.47h-.4a1 1 0 0 1-.39-.07.59.59 0 0 1-.24-.19.69.69 0 0 1-.12-.27 1.58 1.58 0 0 1 0-.33v-1.1zM34.47 33.4h.67l.67 1.75.59-1.75h.6l-1.1 2.92a2.13 2.13 0 0 1-.14.29.8.8 0 0 1-.18.21.72.72 0 0 1-.25.13A1.13 1.13 0 0 1 35 37h-.31v-.52h.47a.27.27 0 0 0 .11-.07.48.48 0 0 0 .08-.12l.08-.17.12-.31zM38 33.4v.33a.85.85 0 0 1 .12-.14.76.76 0 0 1 .18-.13 1.11 1.11 0 0 1 .24-.1 1.1 1.1 0 0 1 .3 0 1.12 1.12 0 0 1 .84.37 1.21 1.21 0 0 1 .24.4 1.42 1.42 0 0 1 .08.5 1.47 1.47 0 0 1-.08.5 1.21 1.21 0 0 1-.23.4 1.12 1.12 0 0 1-.37.27 1.14 1.14 0 0 1-.49.1 1 1 0 0 1-.47-.1.8.8 0 0 1-.33-.28V37h-.6v-3.6zm1.4 1.19a.93.93 0 0 0 0-.28.77.77 0 0 0-.13-.25.64.64 0 0 0-.21-.18.66.66 0 0 0-.31-.07.61.61 0 0 0-.29.07.76.76 0 0 0-.22.18.77.77 0 0 0-.14.25.86.86 0 0 0 0 .28.84.84 0 0 0 0 .28.78.78 0 0 0 .14.25.72.72 0 0 0 .22.18.69.69 0 0 0 .6 0 .67.67 0 0 0 .21-.18.77.77 0 0 0 .13-.25 1 1 0 0 0-.03-.28zM42.85 34.63v.08a.63.63 0 0 1 0 .08H41a.6.6 0 0 0 .22.42.76.76 0 0 0 .21.12.71.71 0 0 0 .25 0 .8.8 0 0 0 .38-.08.71.71 0 0 0 .26-.23l.4.32a1.2 1.2 0 0 1-1 .48 1.46 1.46 0 0 1-.51-.09 1.21 1.21 0 0 1-.41-.25 1.11 1.11 0 0 1-.27-.39 1.35 1.35 0 0 1-.1-.53 1.38 1.38 0 0 1 .1-.53 1.17 1.17 0 0 1 .67-.67 1.35 1.35 0 0 1 .5-.09 1.28 1.28 0 0 1 .46.08 1 1 0 0 1 .37.25 1.14 1.14 0 0 1 .24.41 1.68 1.68 0 0 1 .08.62zm-.6-.27a.75.75 0 0 0 0-.22.52.52 0 0 0-.1-.19.5.5 0 0 0-.18-.13.63.63 0 0 0-.25 0 .67.67 0 0 0-.46.16.59.59 0 0 0-.21.42zM5.2 40.83H4v-.51h1.2zM8.5 41.5a.67.67 0 0 1-.29.26 1 1 0 0 1-.46.1 1.31 1.31 0 0 1-.3 0 .89.89 0 0 1-.29-.12.73.73 0 0 1-.22-.23.66.66 0 0 1-.09-.35.6.6 0 0 1 .15-.47 1 1 0 0 1 .39-.24 2.22 2.22 0 0 1 .53-.11h.57v-.06a.37.37 0 0 0-.16-.33.69.69 0 0 0-.39-.11.87.87 0 0 0-.37.08 1 1 0 0 0-.29.19l-.28-.4a1.35 1.35 0 0 1 .47-.29 1.61 1.61 0 0 1 .54-.1 1.33 1.33 0 0 1 .53.09.86.86 0 0 1 .33.23A.84.84 0 0 1 9 40a1.4 1.4 0 0 1 0 .36v1.44h-.5zm0-.79h-.45a1.32 1.32 0 0 0-.29.06.64.64 0 0 0-.23.12.27.27 0 0 0-.09.21.25.25 0 0 0 0 .14.29.29 0 0 0 .1.09H7.83a.63.63 0 0 0 .47-.17.62.62 0 0 0 .16-.45zM9.37 39.88v-.48h.42v-.7h.59v.7H11v.48h-.6V41a.54.54 0 0 0 .06.27q.06.1.26.1h.26v.47h-.4a1 1 0 0 1-.39-.07.59.59 0 0 1-.24-.19.69.69 0 0 1-.12-.27 1.58 1.58 0 0 1 0-.33v-1.1zM11 39.88v-.48h.42v-.7H12v.7h.6v.48H12V41a.54.54 0 0 0 .06.27q.06.1.26.1h.26v.47h-.4a1 1 0 0 1-.39-.07.59.59 0 0 1-.24-.19.69.69 0 0 1-.12-.27 1.58 1.58 0 0 1 0-.33v-1.1zM13 39.4h.58v.4a.87.87 0 0 1 .28-.34.7.7 0 0 1 .42-.13h.15v.55h-.18a.64.64 0 0 0-.33.08.59.59 0 0 0-.19.18.64.64 0 0 0-.1.21.84.84 0 0 0 0 .17v1.28H13zM14.78 38.59a.34.34 0 0 1 .11-.25.37.37 0 0 1 .27-.11.4.4 0 0 1 .28.1.35.35 0 0 1 0 .52.4.4 0 0 1-.28.1.37.37 0 0 1-.27-.11.35.35 0 0 1-.11-.25zm.08.81h.6v2.4h-.6zM16.81 38v1.68l.12-.12.17-.12a1.05 1.05 0 0 1 .23-.09 1.07 1.07 0 0 1 .29 0 1.12 1.12 0 0 1 .84.37 1.2 1.2 0 0 1 .24.4 1.42 1.42 0 0 1 .08.5 1.47 1.47 0 0 1-.08.5 1.22 1.22 0 0 1-.23.4 1.13 1.13 0 0 1-.37.27 1.14 1.14 0 0 1-.49.1 1.06 1.06 0 0 1-.48-.11.81.81 0 0 1-.35-.32v.36h-.57V38zm1.38 2.57a1 1 0 0 0 0-.28.78.78 0 0 0-.13-.25.64.64 0 0 0-.21-.18.66.66 0 0 0-.31-.07.62.62 0 0 0-.29.07.76.76 0 0 0-.36.43.86.86 0 0 0 0 .28.84.84 0 0 0 0 .28.77.77 0 0 0 .14.25.72.72 0 0 0 .22.18.69.69 0 0 0 .6 0 .66.66 0 0 0 .21-.18.78.78 0 0 0 .13-.25 1 1 0 0 0-.01-.26zM21.56 41.8H21v-.38a.78.78 0 0 1-.28.32.8.8 0 0 1-.47.14.9.9 0 0 1-.4-.08.79.79 0 0 1-.27-.22.87.87 0 0 1-.16-.31 1.29 1.29 0 0 1-.05-.36V39.4H20v1.33a1.66 1.66 0 0 0 0 .27.59.59 0 0 0 .06.21.42.42 0 0 0 .14.15.4.4 0 0 0 .23.06.52.52 0 0 0 .25-.06.53.53 0 0 0 .17-.15.66.66 0 0 0 .1-.21.83.83 0 0 0 0-.24V39.4h.6zM21.94 39.88v-.48h.42v-.7h.59v.7h.6v.48h-.6V41a.54.54 0 0 0 .06.27q.06.1.26.1h.26v.47h-.4a1 1 0 0 1-.39-.07.59.59 0 0 1-.24-.19.69.69 0 0 1-.12-.27 1.58 1.58 0 0 1 0-.33v-1.1zM26.27 40.63v.08a.63.63 0 0 1 0 .08h-1.83a.6.6 0 0 0 .22.42.76.76 0 0 0 .21.12.71.71 0 0 0 .25 0 .8.8 0 0 0 .38-.08.71.71 0 0 0 .26-.23l.4.32a1.2 1.2 0 0 1-1 .48 1.46 1.46 0 0 1-.51-.09 1.21 1.21 0 0 1-.41-.25 1.11 1.11 0 0 1-.27-.39 1.35 1.35 0 0 1-.1-.53 1.38 1.38 0 0 1 .1-.53 1.17 1.17 0 0 1 .67-.67 1.35 1.35 0 0 1 .5-.09 1.28 1.28 0 0 1 .46.08 1 1 0 0 1 .37.25 1.14 1.14 0 0 1 .24.41 1.68 1.68 0 0 1 .06.62zm-.6-.27a.75.75 0 0 0 0-.22.52.52 0 0 0-.1-.19.5.5 0 0 0-.18-.13.63.63 0 0 0-.25 0 .67.67 0 0 0-.46.16.59.59 0 0 0-.21.42zM27.55 39.72H27.98a.77.77 0 0 0 .24-.08.49.49 0 0 0 .18-.16.48.48 0 0 0 .07-.27.5.5 0 0 0 0-.21.47.47 0 0 0-.12-.16.57.57 0 0 0-.18-.1.66.66 0 0 0-.21 0 .54.54 0 0 0-.37.13.64.64 0 0 0-.2.33l-.61-.2a.93.93 0 0 1 .15-.33 1.12 1.12 0 0 1 .26-.25 1.24 1.24 0 0 1 .34-.17 1.32 1.32 0 0 1 .4-.06 1.49 1.49 0 0 1 .44.06 1.08 1.08 0 0 1 .36.19.87.87 0 0 1 .25.3.93.93 0 0 1 .09.42.81.81 0 0 1-.64.8.93.93 0 0 1 .53.29.81.81 0 0 1 .2.56 1 1 0 0 1-.11.48 1 1 0 0 1-.28.34 1.24 1.24 0 0 1-.4.2 1.51 1.51 0 0 1-.44.07 1.83 1.83 0 0 1-.42 0 1.29 1.29 0 0 1-.37-.15 1.09 1.09 0 0 1-.29-.26 1.17 1.17 0 0 1-.2-.38l.56-.17a.73.73 0 0 0 .24.35.71.71 0 0 0 .46.15.86.86 0 0 0 .23 0 .61.61 0 0 0 .21-.1.53.53 0 0 0 .15-.18.58.58 0 0 0 .06-.27.49.49 0 0 0-.08-.29.59.59 0 0 0-.21-.19 1 1 0 0 0-.28-.1H27.55zM29.89 39.76a.37.37 0 0 1 .12-.27.39.39 0 0 1 .28-.12.4.4 0 0 1 .28.11.35.35 0 0 1 .12.27.37.37 0 0 1-.12.27.41.41 0 0 1-.44.08.44.44 0 0 1-.13-.1.37.37 0 0 1-.09-.12.35.35 0 0 1-.02-.12zm0 1.69a.37.37 0 0 1 .12-.27.39.39 0 0 1 .28-.12.4.4 0 0 1 .28.11.35.35 0 0 1 .12.27.37.37 0 0 1-.12.27.41.41 0 0 1-.44.08.44.44 0 0 1-.13-.08.37.37 0 0 1-.09-.12.35.35 0 0 1-.02-.14zM31.06 39.88v-.48h.42v-.7h.59v.7h.6v.48h-.6V41a.54.54 0 0 0 .06.27q.06.1.26.1h.26v.47h-.4a1 1 0 0 1-.39-.07.59.59 0 0 1-.24-.19.69.69 0 0 1-.12-.27 1.58 1.58 0 0 1 0-.33v-1.1zM32.74 39.4h.67l.67 1.75.59-1.75h.63l-1.13 2.92a2.13 2.13 0 0 1-.14.29.8.8 0 0 1-.18.21.72.72 0 0 1-.25.13 1.13 1.13 0 0 1-.34 0h-.15L33 43v-.52h.39a.27.27 0 0 0 .11-.07.48.48 0 0 0 .08-.12l.08-.17.12-.31zM36.24 39.4v.33a.85.85 0 0 1 .12-.14.76.76 0 0 1 .18-.13 1.11 1.11 0 0 1 .24-.1 1.1 1.1 0 0 1 .3 0 1.12 1.12 0 0 1 .84.37 1.21 1.21 0 0 1 .24.4 1.42 1.42 0 0 1 .08.5 1.47 1.47 0 0 1-.08.5 1.21 1.21 0 0 1-.23.4 1.12 1.12 0 0 1-.37.27 1.14 1.14 0 0 1-.49.1 1 1 0 0 1-.47-.1.8.8 0 0 1-.33-.28V43h-.6v-3.6zm1.4 1.19a.93.93 0 0 0 0-.28.77.77 0 0 0-.13-.25.64.64 0 0 0-.21-.18.66.66 0 0 0-.31-.07.61.61 0 0 0-.29.07.76.76 0 0 0-.22.18.77.77 0 0 0-.14.25.86.86 0 0 0 0 .28.84.84 0 0 0 0 .28.78.78 0 0 0 .14.25.72.72 0 0 0 .22.18.69.69 0 0 0 .6 0 .67.67 0 0 0 .21-.18.77.77 0 0 0 .13-.25 1 1 0 0 0 0-.28zM41.12 40.63v.08a.63.63 0 0 1 0 .08h-1.83a.6.6 0 0 0 .22.42.76.76 0 0 0 .21.12.71.71 0 0 0 .25 0 .8.8 0 0 0 .38-.08.71.71 0 0 0 .26-.23l.4.32a1.2 1.2 0 0 1-1 .48 1.46 1.46 0 0 1-.51-.09 1.21 1.21 0 0 1-.41-.25 1.11 1.11 0 0 1-.27-.39 1.35 1.35 0 0 1-.1-.53 1.38 1.38 0 0 1 .1-.53 1.17 1.17 0 0 1 .67-.67 1.35 1.35 0 0 1 .5-.09 1.28 1.28 0 0 1 .46.08 1 1 0 0 1 .37.25 1.14 1.14 0 0 1 .24.41 1.68 1.68 0 0 1 .06.62zm-.6-.27a.75.75 0 0 0 0-.22.52.52 0 0 0-.1-.19.5.5 0 0 0-.18-.13.63.63 0 0 0-.25 0 .67.67 0 0 0-.46.16.59.59 0 0 0-.21.42z"/></svg>