<svg id="Layer_1" data-name="Layer 1" xmlns="http://www.w3.org/2000/svg" viewBox="0 0 59.61 39.15"><defs><style>.cls-2{fill:#3d4752}</style></defs><path d="M37.43 5.62h22v33.32H.21V.21h35.55zm-37.22 0h37.22" style="fill:#fcd1a5;stroke:#fff;stroke-width:.42px"/><path id="G" class="cls-2" d="M4 2.22c0 .72-.61.78-1.36.78v1.1h-.47V1.45H3c.62 0 1 .19 1 .77zm-.48 0c0-.43-.49-.37-.92-.37v.76c.43 0 .92 0 .92-.39"/><path id="r" class="cls-2" d="M5 2.25c.52 0 .8.26.8.76v1.1h-.46v-.23a.63.63 0 0 1-.56.27c-.38 0-.67-.17-.67-.56C4.1 3 4.75 3 5.33 3c0-.26-.18-.37-.41-.37a.72.72 0 0 0-.49.21l-.23-.3a1.1 1.1 0 0 1 .8-.29zm-.1 1.56a.44.44 0 0 0 .47-.52c-.34 0-.79 0-.79.3s.15.22.31.22"/><path id="q" class="cls-2" d="M6.18 3.21a.89.89 0 0 1 1-1 .91.91 0 0 1 .68.28l-.31.27a.48.48 0 0 0-.37-.18.51.51 0 0 0-.49.58c0 .33.17.58.51.58a.5.5 0 0 0 .38-.16l.28.28a.91.91 0 0 1-.66.25.89.89 0 0 1-1-1"/><path id="H" class="cls-2" d="M8.12 1.27h.45v1.79l.68-.76h.58l-.78.81.83 1H9.3l-.71-.92v.92h-.47V1.27"/><path id="r-2" data-name="r" class="cls-2" d="M10.86 2.25c.52 0 .8.26.8.76v1.1h-.42v-.23a.63.63 0 0 1-.56.27C10.3 4.14 10 4 10 3.59 10 3 10.66 3 11.24 3c0-.26-.18-.37-.41-.37a.72.72 0 0 0-.49.21l-.23-.27a1.1 1.1 0 0 1 .75-.32zm-.1 1.56a.44.44 0 0 0 .47-.52c-.34 0-.79 0-.79.3s.15.22.31.22"/><path id="I" class="cls-2" d="M13 2.25a.71.71 0 0 1 .63.32v-.26H14v1.63c0 .76-.45 1.15-1.24 1a1.35 1.35 0 0 1-.66-.28l.26-.35a.92.92 0 0 0 .63.25c.44 0 .61-.3.56-.75a.7.7 0 0 1-.59.27.85.85 0 0 1-.89-.94.85.85 0 0 1 .93-.89zm.63.94a.51.51 0 0 0-.53-.57.5.5 0 0 0-.52.57.51.51 0 0 0 .51.57.52.52 0 0 0 .54-.57"/><path id="p" class="cls-2" d="M15.83 3a.4.4 0 0 0-.42-.43.48.48 0 0 0-.5.43zm-.42-.77c.62 0 .9.43.87 1.09h-1.37a.49.49 0 0 0 .51.44.52.52 0 0 0 .48-.23l.3.24a.9.9 0 0 1-.77.36.87.87 0 0 1-1-.94.89.89 0 0 1 1-1"/><path id="J" class="cls-2" d="M3.83 20.83h.41l1.14 2.65h-.53l-.25-.61H3.45l-.24.61h-.53zm.6 1.64L4 21.39l-.42 1.08h.82"/><path id="A" class="cls-2" d="M6.27 23.52c-.42 0-.59-.23-.58-.64V22h-.32v-.36h.31v-.52h.44v.52h.45V22h-.45v.84c0 .17 0 .28.24.28a.5.5 0 0 0 .19 0v.35a.91.91 0 0 1-.3 0"/><path id="A-2" data-name="A" class="cls-2" d="M7.49 23.52c-.42 0-.59-.23-.58-.64V22h-.32v-.36h.31v-.52h.44v.52h.45V22h-.45v.84c0 .17 0 .28.24.28a.5.5 0 0 0 .19 0v.35a.91.91 0 0 1-.3 0"/><path id="E" class="cls-2" d="M9.19 22.05a.47.47 0 0 0-.62.46v1h-.45v-1.8h.43a2 2 0 0 0 0 .3.57.57 0 0 1 .63-.34v.41"/><path id="K" class="cls-2" d="M9.49 21.68h.45v1.8h-.45zm.22-.34a.27.27 0 1 1 .29-.27.28.28 0 0 1-.29.27"/><path id="u" class="cls-2" d="M11.55 23.53a.7.7 0 0 1-.63-.32v.27h-.42v-2.83h.45v1.26a.73.73 0 0 1 .6-.28.85.85 0 0 1 .87.94.86.86 0 0 1-.87.96zm-.09-.37a.59.59 0 0 0 0-1.16.58.58 0 0 0 0 1.16"/><path id="n" class="cls-2" d="M13.64 23.16c.28 0 .42-.21.42-.49v-1h.45v1.8h-.43a1.82 1.82 0 0 0 0-.29.61.61 0 0 1-.56.34.64.64 0 0 1-.66-.73v-1.11h.45v1c0 .27.07.48.34.48"/><path id="A-3" data-name="A" class="cls-2" d="M15.69 23.52c-.42 0-.59-.23-.58-.64V22h-.31v-.36h.31v-.52h.44v.52H16V22h-.45v.84c0 .17 0 .28.24.28a.5.5 0 0 0 .19 0v.35a.91.91 0 0 1-.3 0"/><path id="p-2" data-name="p" class="cls-2" d="M17.6 22.4a.4.4 0 0 0-.42-.43.48.48 0 0 0-.5.43zm-.42-.77c.62 0 .9.43.87 1.09h-1.38a.49.49 0 0 0 .51.44.52.52 0 0 0 .48-.23l.3.24a.9.9 0 0 1-.77.36.87.87 0 0 1-1-.94.89.89 0 0 1 1-1"/><path id="o" class="cls-2" d="M18.41 22.42c-.23-.61.46-.94 1-.72a.63.63 0 0 1 .3.21l-.29.26a.51.51 0 0 0-.39-.2c-.14 0-.3.05-.29.2s.38.2.6.3a.52.52 0 0 1 .37.48c0 .75-1.15.72-1.49.3l.3-.28a.57.57 0 0 0 .46.22c.15 0 .29-.06.29-.21s-.38-.21-.61-.31a.5.5 0 0 1-.29-.24"/></svg>