<svg xmlns="http://www.w3.org/2000/svg" xml:space="preserve" viewBox="5 19.19 90 61.61"><path fill="none" d="M32.875 78.534a.82.82 0 0 0 0 1.638h34.066a.82.82 0 0 0 0-1.638H32.875zM94.366 65.078V22.356a2.53 2.53 0 0 0-2.527-2.527H8.162a2.53 2.53 0 0 0-2.527 2.527v42.723h88.731zM41.495 74.91h17.011v2.99H41.495z"/><circle fill="none" cx="49.908" cy="69.994" r="1.37"/><path fill="none" d="M5.634 71.748a2.53 2.53 0 0 0 2.527 2.528h83.677a2.53 2.53 0 0 0 2.527-2.528v-6.035H5.634v6.035zm44.274-3.758c1.105 0 2.005.899 2.005 2.005A2.007 2.007 0 0 1 49.908 72a2.007 2.007 0 0 1-2.005-2.005c0-1.106.9-2.005 2.005-2.005z"/><path d="M91.839 19.194H8.162A3.165 3.165 0 0 0 5 22.356V71.748a3.165 3.165 0 0 0 3.162 3.162H40.86v2.99h-7.986c-.801 0-1.453.652-1.453 1.453s.652 1.453 1.453 1.453H66.94c.801 0 1.453-.652 1.453-1.453S67.741 77.9 66.94 77.9h-7.8v-2.99h32.698a3.165 3.165 0 0 0 3.161-3.162V22.356a3.163 3.163 0 0 0-3.16-3.162zm-83.677.634h83.677a2.53 2.53 0 0 1 2.527 2.527v42.723H5.634V22.356a2.53 2.53 0 0 1 2.528-2.528zM67.76 79.353a.82.82 0 0 1-.819.819H32.875a.82.82 0 0 1 0-1.638h34.066a.82.82 0 0 1 .819.819zM58.506 77.9H41.495v-2.99h17.011v2.99zm35.86-6.152a2.53 2.53 0 0 1-2.527 2.528H8.162a2.53 2.53 0 0 1-2.527-2.528v-6.035h88.731v6.035z"/><path d="M49.908 71.999a2.007 2.007 0 0 0 2.005-2.005 2.007 2.007 0 0 0-2.005-2.005 2.007 2.007 0 0 0-2.005 2.005c0 1.106.9 2.005 2.005 2.005zm0-3.375c.755 0 1.37.615 1.37 1.37s-.615 1.37-1.37 1.37c-.756 0-1.37-.615-1.37-1.37s.615-1.37 1.37-1.37z"/></svg>