<svg xmlns="http://www.w3.org/2000/svg" xml:space="preserve" viewBox="54.61 1.41 146.49 252.9"><g style="stroke:none;stroke-width:0;stroke-dasharray:none;stroke-linecap:butt;stroke-linejoin:miter;stroke-miterlimit:10;fill:none;fill-rule:nonzero;opacity:1" transform="matrix(2.81 0 0 2.81 1.407 1.407)"><path d="M64.967 0H25.033a6.106 6.106 0 0 0-6.099 6.098v77.803A6.107 6.107 0 0 0 25.033 90h39.934a6.106 6.106 0 0 0 6.099-6.099V6.098A6.106 6.106 0 0 0 64.967 0zM20.935 12.417h48.131v63.67H20.935v-63.67zM25.033 2h39.934a4.103 4.103 0 0 1 4.099 4.098v4.319H20.935V6.098A4.102 4.102 0 0 1 25.033 2zm39.934 86H25.033a4.104 4.104 0 0 1-4.099-4.099v-5.814h48.131v5.814A4.103 4.103 0 0 1 64.967 88z" style="stroke:none;stroke-width:1;stroke-dasharray:none;stroke-linecap:butt;stroke-linejoin:miter;stroke-miterlimit:10;fill:#000;fill-rule:nonzero;opacity:1"/><circle cx="45" cy="83.04" r="2" style="stroke:none;stroke-width:1;stroke-dasharray:none;stroke-linecap:butt;stroke-linejoin:miter;stroke-miterlimit:10;fill:#000;fill-rule:nonzero;opacity:1"/><path d="M47.169 7.254H36.114a1 1 0 0 1 0-2h11.055a1 1 0 1 1 0 2z" style="stroke:none;stroke-width:1;stroke-dasharray:none;stroke-linecap:butt;stroke-linejoin:miter;stroke-miterlimit:10;fill:#000;fill-rule:nonzero;opacity:1"/><circle cx="51.89" cy="6.25" r="1.5" style="stroke:none;stroke-width:1;stroke-dasharray:none;stroke-linecap:butt;stroke-linejoin:miter;stroke-miterlimit:10;fill:#000;fill-rule:nonzero;opacity:1"/></g></svg>