<svg xmlns="http://www.w3.org/2000/svg" viewBox="16 16 480 480"><path d="M488 160H120V24a8 8 0 0 0-8-8H24a8 8 0 0 0-8 8v32a8 8 0 0 0 8 8h48v424a8 8 0 0 0 8 8h32a8 8 0 0 0 8-8v-80h40v32a8 8 0 0 0 8 8h64a8 8 0 0 0 8-8v-32h16v32a8 8 0 0 0 8 8h128a8 8 0 0 0 8-8v-32h16v32a8 8 0 0 0 8 8h64a8 8 0 0 0 8-8V168a8 8 0 0 0-8-8zM176 360h-56v-64h56zm-56-136h24v24h-24zm-16 256H88V56a8 8 0 0 0-8-8H32V32h72zm16-104h104a8 8 0 0 0 8-8v-8h16v-16h-16v-8h16v-16h-16v-8h16v-16h-16v-8a8 8 0 0 0-8-8H120v-16h32a8 8 0 0 0 8-8v-40a8 8 0 0 0-8-8h-32v-32h360v216H120zm96-80v64h-24v-64zm104 112v24h-16v-24zm16 0h16v24h-16zm-160 0h16v24h-16zm48 24h-16v-24h16zm48-24h16v24h-16zm112 24h-16v-24h16zm48-24h16v24h-16zm48 24h-16v-24h16z"/><path d="M272 280v16h16v8h-16v16h16v8h-16v16h16v8a8 8 0 0 0 8 8h8v16h16v-16h8v16h16v-16h8a8 8 0 0 0 8-8v-8h16v-16h-16v-8h16v-16h-16v-8h16v-16h-16v-8a8 8 0 0 0-8-8h-8v-16h-16v16h-8v-16h-16v16h-8a8 8 0 0 0-8 8v8zm32 0h40v64h-40zM216 208h-32a8 8 0 0 0-8 8v40a8 8 0 0 0 8 8h32a8 8 0 0 0 8-8v-40a8 8 0 0 0-8-8zm-8 40h-16v-24h16zM240 248h32v16h-32zM240 224h32v16h-32zM264 192h16v16h-16zM296 192h16v16h-16zM328 192h16v16h-16zM448.565 334.06a7.999 7.999 0 0 0-7.761-6.06h-8v-40h-16v40h-8a7.999 7.999 0 0 0-7.76 6.06l-8 32a8 8 0 0 0 7.76 9.94h48a8 8 0 0 0 7.76-9.94zM411.05 360l4-16h19.508l4 16zM447.03 233.372a32.039 32.039 0 0 0-45.255 0l11.314 11.315a16.019 16.019 0 0 1 22.628 0z"/><path d="M424.402 208a47.685 47.685 0 0 1 33.94 14.059l11.315-11.313a64 64 0 0 0-90.51 0l11.314 11.314A47.686 47.686 0 0 1 424.402 208z"/><circle cx="424.402" cy="264" r="8"/></svg>