<svg xmlns="http://www.w3.org/2000/svg" xml:space="preserve" fill-rule="evenodd" clip-rule="evenodd" stroke-linejoin="round" stroke-miterlimit="2" viewBox="1 3 46 42"><path d="M8 31a3.001 3.001 0 0 0 0 6 3.001 3.001 0 0 0 0-6zm0 2a1 1 0 1 1 0 2 1 1 0 0 1 0-2zM16 31a3.001 3.001 0 0 0 0 6 3.001 3.001 0 0 0 0-6zm0 2a1 1 0 1 1 0 2 1 1 0 0 1 0-2zM29 32v4a1 1 0 0 0 2 0v-4a1 1 0 0 0-2 0zM33 32v4a1 1 0 0 0 2 0v-4a1 1 0 0 0-2 0zM37 32v4a1 1 0 0 0 2 0v-4a1 1 0 0 0-2 0zM41 32v4a1 1 0 0 0 2 0v-4a1 1 0 0 0-2 0z"/><path d="M9.77 27H4a3 3 0 0 0-3 3v8a3 3 0 0 0 3 3h1v1a3 3 0 0 0 3 3h4a3 3 0 0 0 3-3v-1h18v1a3 3 0 0 0 3 3h4a3 3 0 0 0 3-3v-1h1a3 3 0 0 0 3-3v-8a3 3 0 0 0-3-3h-4.82l3.806-22.836a.999.999 0 1 0-1.972-.328L37.153 27h-25.34L6.979 3.796a1 1 0 0 0-1.958.408L9.77 27zM13 41v1a1 1 0 0 1-1 1H8a1 1 0 0 1-1-1v-1h6zm28 0v1a1 1 0 0 1-1 1h-4a1 1 0 0 1-1-1v-1h6zm3-12H4a1 1 0 0 0-1 1v8a1 1 0 0 0 1 1h40a1 1 0 0 0 1-1v-8a1 1 0 0 0-1-1z"/><path d="M23.293 23.293a1 1 0 0 1 1.414 0 1 1 0 0 0 1.414-1.414 3.002 3.002 0 0 0-4.242 0 1 1 0 0 0 1.414 1.414z"/><path d="M20.464 20.465a5.001 5.001 0 0 1 7.07 0 1.001 1.001 0 0 0 1.416-1.415 7.003 7.003 0 0 0-9.9 0 1.001 1.001 0 0 0 1.414 1.415z"/><path d="M17.638 17.635c3.512-3.512 9.215-3.512 12.728 0a1 1 0 1 0 1.414-1.414c-4.292-4.292-11.264-4.292-15.557 0a1 1 0 1 0 1.415 1.414z"/><path d="M14.807 14.81c5.073-5.074 13.31-5.074 18.383 0a1 1 0 1 0 1.416-1.416c-5.853-5.853-15.362-5.853-21.215 0a1 1 0 1 0 1.416 1.415z"/></svg>