<svg xmlns="http://www.w3.org/2000/svg" style="enable-background:new 0 0 60 60" xml:space="preserve" viewBox="12.09 5 35.82 50"><path d="M30.59 10.04H17.75c-.55 0-1 .45-1 1v4.42c0 .55.45 1 1 1h12.83c.55 0 1-.45 1-1v-4.42c.01-.55-.44-1-.99-1zm-1 4.42H18.75v-2.42h10.83v2.42zM30.59 18.21H17.75c-.55 0-1 .45-1 1v4.42c0 .55.45 1 1 1h12.83c.55 0 1-.45 1-1v-4.42c.01-.55-.44-1-.99-1zm-1 4.42H18.75v-2.42h10.83v2.42zM20.92 28.04c0-.55-.45-1-1-1h-2.17c-.55 0-1 .45-1 1s.45 1 1 1h2.17c.55 0 1-.44 1-1zM24.17 42.04c-2.18 0-3.96 1.78-3.96 3.96s1.78 3.96 3.96 3.96 3.96-1.78 3.96-3.96-1.78-3.96-3.96-3.96zm0 5.92c-1.08 0-1.96-.88-1.96-1.96s.88-1.96 1.96-1.96 1.96.88 1.96 1.96-.88 1.96-1.96 1.96z"/><path d="m47.48 13.18-11.66-8c-.04-.03-.08-.04-.13-.06-.03-.01-.05-.03-.08-.04a.942.942 0 0 0-.34-.08H13.09c-.55 0-1 .45-1 1v48c0 .55.45 1 1 1h22.17c.12 0 .24-.03.35-.07.04-.01.07-.03.1-.05.04-.02.08-.03.11-.05l11.66-8c.27-.19.43-.49.43-.82V14c0-.33-.16-.64-.43-.82zM14.09 7h20.17v46H14.09V7zm31.82 38.47-9.66 6.63V7.9l9.66 6.63v30.94z"/></svg>