<svg xmlns="http://www.w3.org/2000/svg" xml:space="preserve" viewBox="12.4 0.5 35.2 58.98"><path d="M30.512 27.444V16.622c1.795-.252 3.186-1.783 3.186-3.646 0-2.04-1.66-3.7-3.698-3.7s-3.698 1.66-3.698 3.7c0 1.883 1.42 3.424 3.243 3.651v10.817L18.503 58.856a.484.484 0 0 0 .912.321l2.275-6.47 17.905 3.588.99 2.824a.483.483 0 1 0 .912-.32L30.512 27.445zm-.485 1.543 4.73 13.498-8.44-2.943 3.71-10.555zM27.27 12.976c0-1.507 1.225-2.732 2.731-2.732s2.73 1.225 2.73 2.732c0 1.505-1.224 2.73-2.73 2.73s-2.73-1.225-2.73-2.73zm-1.272 27.477 8.437 2.943-12.146 7.61 3.709-10.553zm-3.338 11.461 12.63-7.91 3.934 11.23-16.564-3.32zM23.596 19.755a.483.483 0 0 0 .344-.822 8.433 8.433 0 0 1-2.44-5.954 8.58 8.58 0 0 1 1.948-5.426.484.484 0 0 0-.748-.614 9.553 9.553 0 0 0-2.167 6.04 9.39 9.39 0 0 0 2.719 6.632.48.48 0 0 0 .344.144zM38.496 12.98c0 1.967-.691 3.888-1.947 5.409a.484.484 0 0 0 .747.616 9.49 9.49 0 0 0 2.167-6.026 9.39 9.39 0 0 0-2.718-6.632.485.485 0 0 0-.689.68 8.424 8.424 0 0 1 2.44 5.952z"/><path d="M20.286 22.53a.482.482 0 0 0 .684.005.483.483 0 0 0 .006-.684 12.576 12.576 0 0 1-3.635-8.872c0-2.94 1.032-5.806 2.907-8.072a.483.483 0 1 0-.746-.616 13.657 13.657 0 0 0-3.128 8.688c0 3.595 1.389 6.986 3.912 9.55zM42.655 12.98c0 2.939-1.03 5.803-2.898 8.064a.484.484 0 1 0 .745.616 13.65 13.65 0 0 0 3.12-8.68c0-3.605-1.39-6.997-3.913-9.553a.483.483 0 0 0-.688.68 12.548 12.548 0 0 1 3.634 8.872z"/><path d="M14.788 19.695a16.421 16.421 0 0 1-1.418-6.716c0-1.92.324-3.796.963-5.58a16.288 16.288 0 0 1 2.858-5.017.484.484 0 1 0-.743-.62 17.233 17.233 0 0 0-3.026 5.313 17.443 17.443 0 0 0-1.02 5.904c0 2.476.506 4.868 1.501 7.107a17.238 17.238 0 0 0 3.556 5.22.484.484 0 1 0 .687-.68 16.264 16.264 0 0 1-3.358-4.931zM46.097 5.865A17.23 17.23 0 0 0 42.542.644a.483.483 0 1 0-.688.68 16.272 16.272 0 0 1 3.358 4.931 16.426 16.426 0 0 1 1.418 6.717c0 1.92-.324 3.797-.963 5.578a16.272 16.272 0 0 1-2.857 5.018.484.484 0 1 0 .742.62 17.228 17.228 0 0 0 3.026-5.313 17.43 17.43 0 0 0 1.02-5.903c0-2.476-.506-4.868-1.501-7.107z"/></svg>