<svg id="Layer_1" data-name="Layer 1" xmlns="http://www.w3.org/2000/svg" viewBox="0 0 123.93 78.86"><defs><style>.cls-1,.cls-3{fill:#f7bcae;}.cls-2{fill:none;}.cls-2,.cls-3{stroke:#3d4752;stroke-width:0.87px;}.cls-4{fill:#3d4752;}</style></defs><title>UML Sequence</title><path class="cls-1" d="M.43.43H35.1V9.1l-4.33,4.33H.43Z"/><path class="cls-2" d="M.43.43H123.5v78H.43Z"/><path class="cls-3" d="M35.1.43V9.1l-4.33,4.33H.43"/><path id="y" class="cls-4" d="M4.51,3.88h1V8.53H7.84v.87H4.51V3.88"/><path id="D" class="cls-4" d="M10.12,9.51a1.87,1.87,0,0,1-2-2,1.85,1.85,0,0,1,2-2,1.85,1.85,0,0,1,2,2A1.87,1.87,0,0,1,10.12,9.51Zm0-3.2A1.06,1.06,0,0,0,9,7.52a1.09,1.09,0,1,0,2.17,0,1.06,1.06,0,0,0-1.08-1.2"/><path id="D-2" data-name="D" class="cls-4" d="M14.88,9.51a1.87,1.87,0,0,1-2-2,1.85,1.85,0,0,1,2-2,1.85,1.85,0,0,1,2,2A1.87,1.87,0,0,1,14.88,9.51Zm0-3.2a1.06,1.06,0,0,0-1.08,1.2,1.09,1.09,0,1,0,2.17,0,1.06,1.06,0,0,0-1.08-1.2"/><path id="U" class="cls-4" d="M20,9.51a1.42,1.42,0,0,1-1.24-.61h0v2.37h-.94V5.66h.9v.52h0A1.47,1.47,0,0,1,20,5.55a1.76,1.76,0,0,1,1.82,2A1.8,1.8,0,0,1,20,9.51Zm-.19-.78A1.07,1.07,0,0,0,20.9,7.52a1.06,1.06,0,0,0-1.08-1.2,1.09,1.09,0,0,0-1.1,1.22,1.09,1.09,0,0,0,1.1,1.2"/><path id="P" class="cls-4" d="M7.6,20.77H6.9v5.71h.7v.61H6.1V20.16H7.6v.61"/><path id="Q" class="cls-4" d="M13.64,25a2.57,2.57,0,0,1-2.14,1,2.71,2.71,0,0,1-2.95-2.92,2.71,2.71,0,0,1,3-2.89,2.48,2.48,0,0,1,2,.84l-.75.59a1.52,1.52,0,0,0-1.26-.57,1.82,1.82,0,0,0-1.91,2,1.81,1.81,0,0,0,1.87,2,1.59,1.59,0,0,0,1.34-.64"/><path id="D-3" data-name="D" class="cls-4" d="M15.92,26a1.87,1.87,0,0,1-2-2,1.85,1.85,0,0,1,2-2,1.85,1.85,0,0,1,2,2A1.87,1.87,0,0,1,15.92,26Zm0-3.2A1.06,1.06,0,0,0,14.84,24,1.09,1.09,0,1,0,17,24a1.06,1.06,0,0,0-1.08-1.2"/><path id="L" class="cls-4" d="M20.67,22.8c-.59,0-.87.43-.87,1v2.06h-.94V22.13h.89a3.79,3.79,0,0,0,0,.6A1.27,1.27,0,0,1,20.93,22a1.33,1.33,0,0,1,1.38,1.51v2.34h-.94V23.8c0-.55-.15-1-.7-1"/><path id="R" class="cls-4" d="M25,22a1.51,1.51,0,0,1,1.26.58h0V20h.94v5.9h-.89a3.31,3.31,0,0,0,0-.56A1.45,1.45,0,0,1,25,26a1.78,1.78,0,0,1-1.84-2A1.76,1.76,0,0,1,25,22Zm.21.76A1.06,1.06,0,0,0,24.13,24,1.07,1.07,0,0,0,25.2,25.2a1.21,1.21,0,0,0,0-2.42"/><path id="N" class="cls-4" d="M28.36,22.13h.94v3.74h-.94Zm.46-.71a.56.56,0,1,1,.61-.56.59.59,0,0,1-.61.56"/><path id="C" class="cls-4" d="M31.77,25.95c-.87,0-1.22-.48-1.22-1.33V22.88H29.9v-.75h.66V21h.92v1.08h.94v.75h-.94v1.74c0,.36.09.59.49.58a1,1,0,0,0,.4-.08l0,.73a1.9,1.9,0,0,1-.62.1"/><path id="N-2" data-name="N" class="cls-4" d="M33.1,22.13H34v3.74H33.1Zm.46-.71a.56.56,0,1,1,.61-.56.59.59,0,0,1-.61.56"/><path id="D-4" data-name="D" class="cls-4" d="M37,26a1.87,1.87,0,0,1-2-2,1.85,1.85,0,0,1,2-2,1.85,1.85,0,0,1,2,2A1.87,1.87,0,0,1,37,26Zm0-3.2A1.06,1.06,0,0,0,35.91,24a1.09,1.09,0,1,0,2.17,0A1.06,1.06,0,0,0,37,22.78"/><path id="L-2" data-name="L" class="cls-4" d="M41.75,22.8c-.59,0-.87.43-.87,1v2.06h-.94V22.13h.89a3.79,3.79,0,0,0,0,.6A1.27,1.27,0,0,1,42,22a1.33,1.33,0,0,1,1.38,1.51v2.34h-.94V23.8c0-.55-.15-1-.7-1"/><path id="S" class="cls-4" d="M44.52,26.48h.7V20.77h-.7v-.61H46v6.93h-1.5v-.61"/></svg>