<svg id="Layer_1" data-name="Layer 1" xmlns="http://www.w3.org/2000/svg" viewBox="0 0 130.86 78.86"><defs><style>.cls-1{fill:#f7bcae;}.cls-2{fill:none;stroke:#3d4752;stroke-width:0.87px;}.cls-3{fill:#3d4752;}</style></defs><title>UML Sequence</title><path class="cls-1" d="M.43.43H55V9.1L50.7,13.43H.43Z"/><path class="cls-2" d="M55,.43V9.1L50.7,13.43H.43"/><path class="cls-2" d="M.43.43h130v78H.43Zm0,39H9.1m6.5,0h8.67m6.5,0h8.67m6.5,0H54.6m6.5,0h8.67m6.5,0h8.67m6.5,0h8.67m6.5,0h8.67m6.5,0h8.67"/><path id="A" class="cls-3" d="M6.24,3.88h.85L9.47,9.41H8.35L7.83,8.14H5.44l-.5,1.26H3.84ZM7.49,7.3,6.64,5.05,5.77,7.3H7.49"/><path id="J" class="cls-3" d="M10,3.51h.94v5.9H10V3.51"/><path id="C" class="cls-3" d="M13.39,9.48c-.87,0-1.22-.48-1.22-1.33V6.41h-.66V5.66h.66V4.58h.92V5.66H14v.75H13.1V8.15c0,.36.09.59.49.58a1,1,0,0,0,.4-.08l0,.73a1.9,1.9,0,0,1-.62.1"/><path id="K" class="cls-3" d="M17.35,7.16a.83.83,0,0,0-.88-.9,1,1,0,0,0-1,.9Zm-.87-1.61c1.29,0,1.87.9,1.8,2.28H15.43a1,1,0,0,0,1.07.92,1.09,1.09,0,0,0,1-.48l.62.5a1.87,1.87,0,0,1-1.61.75,1.82,1.82,0,0,1-2-2,1.84,1.84,0,0,1,2-2"/><path id="E" class="cls-3" d="M21.42,6.43a1,1,0,0,0-1.29,1v2h-.94V5.66h.9a4.09,4.09,0,0,0,0,.62,1.18,1.18,0,0,1,1.32-.71v.86"/><path id="L" class="cls-3" d="M23.84,6.33c-.59,0-.87.43-.87,1V9.41H22V5.66h.89a3.79,3.79,0,0,0,0,.6,1.27,1.27,0,0,1,1.16-.71,1.33,1.33,0,0,1,1.38,1.51V9.41h-.94V7.33c0-.55-.15-1-.7-1"/><path id="M" class="cls-3" d="M28.09,5.55c1.08,0,1.67.54,1.67,1.58V9.41h-.87V8.93h0a1.3,1.3,0,0,1-1.16.57c-.79,0-1.4-.36-1.4-1.16,0-1.18,1.36-1.23,2.57-1.27.05-.55-.37-.77-.86-.78a1.49,1.49,0,0,0-1,.43l-.48-.57A2.29,2.29,0,0,1,28.09,5.55Zm-.2,3.24a.91.91,0,0,0,1-1.09c-.72,0-1.64,0-1.64.62,0,.35.3.46.66.47"/><path id="C-2" data-name="C" class="cls-3" d="M32.11,9.48c-.87,0-1.22-.48-1.22-1.33V6.41h-.66V5.66h.66V4.58h.92V5.66h.94v.75h-.94V8.15c0,.36.09.59.49.58a1,1,0,0,0,.4-.08l0,.73a1.9,1.9,0,0,1-.62.1"/><path id="N" class="cls-3" d="M33.45,5.66h.94V9.41h-.94ZM33.91,5a.59.59,0,0,1-.59-.56.6.6,0,0,1,1.2,0,.59.59,0,0,1-.61.56"/><path id="O" class="cls-3" d="M35,5.66h1c.34.9.64,1.84,1,2.73l1-2.73h1L37.47,9.41h-1"/><path id="K-2" data-name="K" class="cls-3" d="M42.16,7.16a.83.83,0,0,0-.88-.9,1,1,0,0,0-1,.9Zm-.87-1.61c1.29,0,1.87.9,1.8,2.28H40.24a1,1,0,0,0,1.07.92,1.09,1.09,0,0,0,1-.48l.62.5a1.87,1.87,0,0,1-1.61.75,1.82,1.82,0,0,1-2-2,1.84,1.84,0,0,1,2-2"/><path id="P" class="cls-3" d="M7.6,20.77H6.9v5.71h.7v.61H6.1V20.16H7.6v.61"/><path id="Q" class="cls-3" d="M13.64,25a2.57,2.57,0,0,1-2.14,1,2.71,2.71,0,0,1-2.95-2.92,2.71,2.71,0,0,1,3-2.89,2.48,2.48,0,0,1,2,.84l-.75.59a1.52,1.52,0,0,0-1.26-.57,1.82,1.82,0,0,0-1.91,2,1.81,1.81,0,0,0,1.87,2,1.59,1.59,0,0,0,1.34-.64"/><path id="D" class="cls-3" d="M15.92,26a1.87,1.87,0,0,1-2-2,1.85,1.85,0,0,1,2-2,1.85,1.85,0,0,1,2,2A1.87,1.87,0,0,1,15.92,26Zm0-3.2A1.06,1.06,0,0,0,14.84,24,1.09,1.09,0,1,0,17,24a1.06,1.06,0,0,0-1.08-1.2"/><path id="L-2" data-name="L" class="cls-3" d="M20.67,22.8c-.59,0-.87.43-.87,1v2.06h-.94V22.13h.89a3.79,3.79,0,0,0,0,.6A1.27,1.27,0,0,1,20.93,22a1.33,1.33,0,0,1,1.38,1.51v2.34h-.94V23.8c0-.55-.15-1-.7-1"/><path id="R" class="cls-3" d="M25,22a1.51,1.51,0,0,1,1.26.58h0V20h.94v5.9h-.89a3.31,3.31,0,0,0,0-.56A1.45,1.45,0,0,1,25,26a1.78,1.78,0,0,1-1.84-2A1.76,1.76,0,0,1,25,22Zm.21.76A1.06,1.06,0,0,0,24.13,24,1.07,1.07,0,0,0,25.2,25.2a1.21,1.21,0,0,0,0-2.42"/><path id="N-2" data-name="N" class="cls-3" d="M28.36,22.13h.94v3.74h-.94Zm.46-.71a.56.56,0,1,1,.61-.56.59.59,0,0,1-.61.56"/><path id="C-3" data-name="C" class="cls-3" d="M31.77,25.95c-.87,0-1.22-.48-1.22-1.33V22.88H29.9v-.75h.66V21h.92v1.08h.94v.75h-.94v1.74c0,.36.09.59.49.58a1,1,0,0,0,.4-.08l0,.73a1.9,1.9,0,0,1-.62.1"/><path id="N-3" data-name="N" class="cls-3" d="M33.1,22.13H34v3.74H33.1Zm.46-.71a.56.56,0,1,1,.61-.56.59.59,0,0,1-.61.56"/><path id="D-2" data-name="D" class="cls-3" d="M37,26a1.87,1.87,0,0,1-2-2,1.85,1.85,0,0,1,2-2,1.85,1.85,0,0,1,2,2A1.87,1.87,0,0,1,37,26Zm0-3.2A1.06,1.06,0,0,0,35.91,24a1.09,1.09,0,1,0,2.17,0A1.06,1.06,0,0,0,37,22.78"/><path id="L-3" data-name="L" class="cls-3" d="M41.75,22.8c-.59,0-.87.43-.87,1v2.06h-.94V22.13h.89a3.79,3.79,0,0,0,0,.6A1.27,1.27,0,0,1,42,22a1.33,1.33,0,0,1,1.38,1.51v2.34h-.94V23.8c0-.55-.15-1-.7-1"/><path id="S" class="cls-3" d="M44.52,26.48h.7V20.77h-.7v-.61H46v6.93h-1.5v-.61"/><path id="P-2" data-name="P" class="cls-3" d="M7.6,46.77H6.9v5.71h.7v.61H6.1V46.16H7.6v.61"/><path id="T" class="cls-3" d="M8.82,46.35h3.66v.86H9.8v1.4h2.53v.83H9.8V51h2.82v.87H8.82V46.35"/><path id="J-2" data-name="J" class="cls-3" d="M13.54,46h.94v5.9h-.94V46"/><path id="F" class="cls-3" d="M15.48,49.66c-.48-1.28,1-2,2.18-1.5a1.32,1.32,0,0,1,.62.43l-.61.54a1.06,1.06,0,0,0-.82-.41c-.28,0-.63.11-.6.41,0,.5.8.41,1.24.62a1.09,1.09,0,0,1,.78,1c.06,1.56-2.39,1.51-3.1.63l.62-.58a1.18,1.18,0,0,0,1,.47c.32,0,.6-.12.6-.44,0-.54-.8-.44-1.26-.66a1,1,0,0,1-.61-.5"/><path id="K-3" data-name="K" class="cls-3" d="M21.72,49.62a.83.83,0,0,0-.88-.9,1,1,0,0,0-1,.9ZM20.84,48c1.29,0,1.87.9,1.8,2.28H19.8a1,1,0,0,0,1.07.92,1.09,1.09,0,0,0,1-.48l.62.5a1.87,1.87,0,0,1-1.61.75,1.82,1.82,0,0,1-2-2,1.84,1.84,0,0,1,2-2"/><path id="S-2" data-name="S" class="cls-3" d="M23.6,52.48h.7V46.77h-.7v-.61h1.5v6.93H23.6v-.61"/></svg>