<svg height="800" width="800" xmlns="http://www.w3.org/2000/svg" viewBox="0 0 512 512" xml:space="preserve"><path style="fill:#ffdb56" d="M479.862 307.705 361.517 182.987a8.438 8.438 0 0 0-10.348-1.495l-85.645 49.558L154.493 71.143a8.44 8.44 0 0 0-12.743-1.309L3.192 201.352a8.44 8.44 0 0 0-2.63 6.121V503.56a8.44 8.44 0 0 0 8.44 8.44H473.74a8.44 8.44 0 0 0 8.44-8.44V313.514c0-2.162-.829-4.24-2.318-5.809z"/><path style="fill:#fba806" d="M440.545 266.27V512h33.196a8.44 8.44 0 0 0 8.44-8.44V313.514c0-2.162-.829-4.24-2.318-5.809l-39.318-41.435z"/><path style="fill:#f77935" d="M479.283 394.152 360.936 291.109a8.44 8.44 0 0 0-10.484-.476l-99.516 71.912-96.15-159.429a8.438 8.438 0 0 0-12.81-1.971L3.42 323.345a8.442 8.442 0 0 0-2.857 6.33V503.56a8.44 8.44 0 0 0 8.44 8.44h464.738a8.44 8.44 0 0 0 8.44-8.44V400.518a8.452 8.452 0 0 0-2.898-6.366z"/><path style="fill:#d9510d" d="m479.283 394.152-39.3-34.218V512h33.758a8.44 8.44 0 0 0 8.44-8.44V400.518a8.452 8.452 0 0 0-2.898-6.366z"/><path style="fill:gray" d="M502.998 512H9.002a8.44 8.44 0 0 1-8.44-8.44V8.44a8.44 8.44 0 0 1 16.88 0v486.681h485.556c4.662 0 8.44 3.778 8.44 8.44S507.66 512 502.998 512z"/></svg>