<svg height="800" width="800" xmlns="http://www.w3.org/2000/svg" viewBox="0 0 512 512" xml:space="preserve"><path style="fill:#894ba2" d="M391.596 91.045H9.002a8.44 8.44 0 0 0-8.44 8.44v74.678a8.44 8.44 0 0 0 8.44 8.44h382.593a8.44 8.44 0 0 0 8.44-8.44V99.484a8.439 8.439 0 0 0-8.439-8.439z"/><path style="fill:#763794" d="M391.596 91.045h-33.758v91.557h33.758a8.44 8.44 0 0 0 8.44-8.44V99.484a8.44 8.44 0 0 0-8.44-8.439z"/><path style="fill:#f77935" d="M307.682 227.101H9.002a8.44 8.44 0 0 0-8.44 8.44v74.677a8.44 8.44 0 0 0 8.44 8.44h298.679a8.44 8.44 0 0 0 8.44-8.44V235.54a8.439 8.439 0 0 0-8.439-8.439z"/><path style="fill:#d9510d" d="M307.682 227.101h-33.758v91.556h33.758a8.44 8.44 0 0 0 8.44-8.44V235.54a8.44 8.44 0 0 0-8.44-8.439z"/><path style="fill:#ffdb56" d="M214.37 363.158H9.002a8.44 8.44 0 0 0-8.44 8.44v74.677a8.44 8.44 0 0 0 8.44 8.44H214.37a8.44 8.44 0 0 0 8.44-8.44v-74.677a8.438 8.438 0 0 0-8.44-8.44z"/><path style="fill:#fba806" d="M214.37 363.158h-33.758v91.556h33.758a8.44 8.44 0 0 0 8.44-8.44v-74.677a8.438 8.438 0 0 0-8.44-8.439z"/><path style="fill:gray" d="M502.998 512H9.002a8.44 8.44 0 0 1-8.44-8.44V8.44a8.44 8.44 0 0 1 16.88 0v486.681h485.556a8.44 8.44 0 1 1 0 16.879z"/></svg>