<svg height="800" width="800" xmlns="http://www.w3.org/2000/svg" viewBox="0 0 512 512" xml:space="preserve"><path style="fill:#894ba2" d="M431.952 112.527h-74.678a8.44 8.44 0 0 0-8.44 8.44V503.56a8.44 8.44 0 0 0 8.44 8.44h74.678a8.44 8.44 0 0 0 8.44-8.44V120.967a8.44 8.44 0 0 0-8.44-8.44z"/><path style="fill:#763794" d="M431.952 112.527h-33.758V512h33.758a8.44 8.44 0 0 0 8.44-8.44V120.967a8.44 8.44 0 0 0-8.44-8.44z"/><path style="fill:#f77935" d="M295.897 196.441h-74.678a8.44 8.44 0 0 0-8.44 8.44V503.56a8.44 8.44 0 0 0 8.44 8.44h74.678a8.44 8.44 0 0 0 8.44-8.44V204.881a8.442 8.442 0 0 0-8.44-8.44z"/><path style="fill:#d9510d" d="M295.897 196.441h-33.758V512h33.758a8.44 8.44 0 0 0 8.44-8.44V204.881a8.442 8.442 0 0 0-8.44-8.44z"/><path style="fill:#ffdb56" d="M159.84 289.753H85.163a8.44 8.44 0 0 0-8.44 8.44V503.56a8.44 8.44 0 0 0 8.44 8.44h74.678a8.44 8.44 0 0 0 8.44-8.44V298.192a8.442 8.442 0 0 0-8.441-8.439z"/><path style="fill:#fba806" d="M159.84 289.753h-33.758V512h33.758a8.44 8.44 0 0 0 8.44-8.44V298.192a8.44 8.44 0 0 0-8.44-8.439z"/><path style="fill:gray" d="M502.998 512H9.002a8.44 8.44 0 0 1-8.44-8.44V8.44a8.44 8.44 0 0 1 16.88 0v486.681h485.556a8.44 8.44 0 1 1 0 16.879z"/></svg>