<svg height="800" width="800" xmlns="http://www.w3.org/2000/svg" viewBox="0 0 512.001 512.001" xml:space="preserve"><path style="fill:#3fc8f2" d="M440.733 293.843H332.218a8.084 8.084 0 0 0-8.084 8.084c0 47.085-38.306 85.391-85.391 85.391s-85.391-38.306-85.391-85.391c0-25.458 11.246-49.404 30.853-65.7a8.085 8.085 0 0 0 1.162-11.247l-67.512-84.957a8.083 8.083 0 0 0-11.426-1.247c-49.418 40.125-77.761 99.591-77.761 163.15 0 115.835 94.239 210.073 210.074 210.073s210.074-94.238 210.074-210.073a8.083 8.083 0 0 0-8.083-8.083z"/><path style="fill:#0daace" d="m442.007 293.953-31.594 7.974c0 .172.006.345.006.518 0 105.524-80.977 192.119-184.177 201.074.902.055-8.784 1.359-32.85 3.535a210.013 210.013 0 0 0 45.351 4.945c115.835 0 210.074-94.238 210.074-210.073 0-4.029-2.953-7.36-6.81-7.973z"/><path style="fill:#f77935" d="M411.694 128.975c-46.196-46.196-107.619-71.639-172.951-71.639-.573 0-1.145.01-1.716.019l-.926.014a8.085 8.085 0 0 0-7.999 8.084v142.868c0 1.479.327 2.961 1.076 4.236 1.545 2.629 4.293 4.112 7.228 4.04l.839-.026c.498-.017.996-.036 1.498-.036 49.752 0 89.704 42.771 85.016 93.475h151.49c4.442 0 8.083-3.585 8.084-8.027.015-65.352-25.429-126.797-71.639-173.008z"/><path style="fill:#d9510d" d="M475.249 310.012a8.084 8.084 0 0 0 8.084-8.084c0-65.332-25.441-126.755-71.639-172.952-46.196-46.196-107.619-71.639-172.951-71.639-.573 0-1.145.01-1.716.019l-.926.014a8.085 8.085 0 0 0-7.999 8.084v1.476l8.084.352c116.56 14.644 204.57 114.113 204.57 234.644l-.903 8.084h35.396v.002z"/><path style="fill:#0daace" d="M238.743 387.317c-47.084 0-85.391-38.306-85.391-85.391 0-25.458 11.246-49.404 30.853-65.7a8.085 8.085 0 0 0 1.162-11.247l-8.885-11.182c-35.951 13.213-61.597 47.756-61.597 88.29 0 51.935 42.101 94.036 94.036 94.036 14.889 0 28.965-3.465 41.477-9.624a85.193 85.193 0 0 1-11.655.818z"/><path style="fill:#ffdb56" d="M244.252 6.731c-.897-4.112-4.346-6.798-8.135-6.729-34.608.295-68.507 6.403-100.751 18.151-31.181 11.362-60.144 27.734-86.086 48.665a8.085 8.085 0 0 0-1.253 11.321L172.708 235.04a8.085 8.085 0 0 0 11.496 1.188c16.821-13.98 37.793-20.837 60.066-19.498V6.903a.83.83 0 0 0-.018-.172z"/><path style="fill:#fba806" d="M178.208 238.052a8.083 8.083 0 0 0 5.997-1.824c16.821-13.98 37.793-20.837 60.066-19.498V8.3c0-1.728-.459-3.454-1.463-4.861-1.561-2.189-4.043-3.486-6.69-3.437-10.835.093-21.6.756-32.267 1.981v206.904a93.194 93.194 0 0 0-34.773 8.59l-7.318 3.787 10.948 13.778a8.09 8.09 0 0 0 5.5 3.01z"/></svg>