<svg height="800" width="800" xmlns="http://www.w3.org/2000/svg" viewBox="0 0 512 512" xml:space="preserve"><path style="fill:#3fc8f2" d="M471.348 84.69c-4.407-.174-8.501-1.796-11.841-4.69a8.435 8.435 0 0 0-11.703.628l-81.609 87.663a8.44 8.44 0 0 0-.339 11.115c2.873 3.488 4.39 7.724 4.39 12.253 0 9.59-7.151 17.803-16.636 19.105a8.44 8.44 0 0 0-7.292 8.362V503.56a8.44 8.44 0 0 0 8.44 8.44h116.259a8.44 8.44 0 0 0 8.44-8.44V93.123a8.444 8.444 0 0 0-8.109-8.433z"/><path style="fill:#0daace" d="M471.348 84.69c-4.407-.174-8.501-1.796-11.841-4.69a8.435 8.435 0 0 0-11.703.628l-10.546 11.328V512h33.758a8.44 8.44 0 0 0 8.44-8.44V93.123a8.442 8.442 0 0 0-8.108-8.433z"/><path style="fill:#894ba2" d="M360.304 212.766a8.426 8.426 0 0 0-6.693-2.002 19.146 19.146 0 0 1-13.807-3.368 8.439 8.439 0 0 0-11.065 1.13l-73.08 78.503a8.44 8.44 0 0 0-.323 11.135c2.896 3.496 4.428 7.749 4.428 12.297 0 10.637-8.654 19.293-19.293 19.293-.178 0-.354-.008-.532-.015l-.144-.006a8.485 8.485 0 0 0-6.154 2.366 8.443 8.443 0 0 0-2.575 6.07V503.56a8.44 8.44 0 0 0 8.44 8.44h115.252a8.44 8.44 0 0 0 8.44-8.44V219.125a8.444 8.444 0 0 0-2.894-6.359z"/><path style="fill:#763794" d="M363.196 503.56V219.125a8.432 8.432 0 0 0-2.891-6.359 8.426 8.426 0 0 0-6.693-2.002 19.146 19.146 0 0 1-13.807-3.368 8.439 8.439 0 0 0-11.065 1.13l-7.741 8.315V512h33.758a8.44 8.44 0 0 0 8.439-8.44z"/><path style="fill:#f77935" d="M239.794 329.73a19.205 19.205 0 0 1-18.615-19.273c0-3.375.889-6.699 2.569-9.613a8.44 8.44 0 0 0-1.76-10.574l-71.127-62.087a8.44 8.44 0 0 0-11.659.536c-3.683 3.864-8.642 5.992-13.965 5.992-.183 0-.365-.008-.546-.015l-.146-.006a8.44 8.44 0 0 0-8.725 8.437V503.56a8.44 8.44 0 0 0 8.44 8.44h115.247a8.44 8.44 0 0 0 8.44-8.44V338.166a8.446 8.446 0 0 0-8.153-8.436z"/><path style="fill:#d9510d" d="M239.794 329.73a19.205 19.205 0 0 1-18.615-19.273c0-3.375.889-6.699 2.569-9.613a8.44 8.44 0 0 0-1.76-10.574l-15.115-13.194V512h32.633a8.44 8.44 0 0 0 8.44-8.44V338.166a8.445 8.445 0 0 0-8.152-8.436z"/><path style="fill:#ffdb56" d="M124.551 234.692a19.122 19.122 0 0 1-11.23-4.108 8.437 8.437 0 0 0-11.916 1.492L2.308 361.177a8.435 8.435 0 0 0-1.745 5.138V503.56a8.44 8.44 0 0 0 8.44 8.44h115.255a8.44 8.44 0 0 0 8.44-8.44V243.127a8.441 8.441 0 0 0-8.147-8.435z"/><path style="fill:#fba806" d="M89.732 512h34.526a8.44 8.44 0 0 0 8.44-8.44V243.127a8.44 8.44 0 0 0-8.146-8.434 19.122 19.122 0 0 1-11.23-4.108 8.437 8.437 0 0 0-11.916 1.492l-10.229 13.327L89.732 512z"/><path style="fill:gray" d="M502.998 512H9.002a8.44 8.44 0 0 1-8.44-8.44V8.44a8.44 8.44 0 0 1 16.88 0v486.681h485.556c4.662 0 8.44 3.778 8.44 8.44S507.66 512 502.998 512z"/><path style="fill:#00d9c0" d="M125.235 179.247c-19.944 0-36.171 16.226-36.171 36.171s16.226 36.172 36.171 36.172c19.946 0 36.171-16.226 36.171-36.172s-16.225-36.171-36.171-36.171z"/><path style="fill:#1ea29f" d="M125.235 179.247c-3.928 0-7.708.638-11.253 1.802 14.451 4.743 24.918 18.353 24.918 34.37s-10.467 29.627-24.918 34.37a35.998 35.998 0 0 0 11.253 1.802c19.946 0 36.171-16.226 36.171-36.172s-16.225-36.172-36.171-36.172z"/><path style="fill:#00d9c0" d="M240.47 274.287c-19.946 0-36.172 16.226-36.172 36.172 0 19.945 16.226 36.172 36.172 36.172 19.945 0 36.172-16.226 36.172-36.172 0-19.946-16.226-36.172-36.172-36.172z"/><path style="fill:#1ea29f" d="M240.47 274.287c-3.928 0-7.708.638-11.253 1.802 14.451 4.743 24.919 18.353 24.919 34.37 0 16.017-10.468 29.627-24.919 34.37a35.998 35.998 0 0 0 11.253 1.802c19.945 0 36.172-16.227 36.172-36.172 0-19.946-16.226-36.172-36.172-36.172z"/><path style="fill:#00d9c0" d="M350.953 155.488c-19.944 0-36.17 16.226-36.17 36.172s16.226 36.172 36.17 36.172c19.945 0 36.172-16.226 36.172-36.172s-16.228-36.172-36.172-36.172z"/><path style="fill:#1ea29f" d="M350.953 155.488c-3.928 0-7.708.638-11.253 1.802 14.451 4.743 24.918 18.353 24.918 34.37s-10.467 29.626-24.918 34.37a35.988 35.988 0 0 0 11.253 1.802c19.945 0 36.172-16.226 36.172-36.172s-16.228-36.172-36.172-36.172z"/><path style="fill:#00d9c0" d="M472.127 29.247c-19.944 0-36.17 16.226-36.17 36.172s16.226 36.172 36.17 36.172c19.945 0 36.172-16.226 36.172-36.172s-16.226-36.172-36.172-36.172z"/><path style="fill:#1ea29f" d="M472.127 29.247c-3.928 0-7.708.638-11.253 1.802 14.451 4.743 24.918 18.353 24.918 34.37s-10.468 29.627-24.918 34.37a35.998 35.998 0 0 0 11.253 1.802c19.945 0 36.172-16.226 36.172-36.172s-16.226-36.172-36.172-36.172z"/></svg>