<svg height="800" width="800" xmlns="http://www.w3.org/2000/svg" viewBox="0 0 512 512" xml:space="preserve"><path style="fill:gray" d="M502.998 512H9.002a8.44 8.44 0 0 1-8.44-8.44V8.44a8.441 8.441 0 0 1 16.88 0v486.681h485.556a8.44 8.44 0 0 1 0 16.879z"/><path style="fill:#3fc8f2" d="M432.106 339.774a8.418 8.418 0 0 1-5.853-2.359L206.958 126.402 55.267 267.8a8.438 8.438 0 0 1-11.928-.42 8.438 8.438 0 0 1 .42-11.928l157.538-146.848a8.44 8.44 0 0 1 11.606.092l219.261 210.983 39.162-36.927a8.44 8.44 0 0 1 11.58 12.28l-45.011 42.442a8.408 8.408 0 0 1-5.789 2.3z"/><path style="fill:#f77935" d="M49.512 450.11a8.406 8.406 0 0 1-6.058-2.565 8.44 8.44 0 0 1 .183-11.934l157.538-152.777a8.44 8.44 0 0 1 11.713-.037l106.054 101.566 151.74-178.835a8.44 8.44 0 0 1 12.869 10.921l-157.538 185.67a8.442 8.442 0 0 1-5.999 2.968 8.496 8.496 0 0 1-6.273-2.334l-106.653-102.14L55.387 447.729a8.409 8.409 0 0 1-5.875 2.381z"/></svg>