<svg height="800" width="800" xmlns="http://www.w3.org/2000/svg" viewBox="0 0 512.001 512.001" xml:space="preserve"><path style="fill:#f77935" d="M442.45 80.323C397.799 32.887 337.513 4.464 272.698.288a8.05 8.05 0 0 0-6.052 2.172 8.084 8.084 0 0 0-2.556 5.9v238.283a8.09 8.09 0 0 0 3.882 6.909L471.531 377.5a8.086 8.086 0 0 0 11.371-3.154c19.037-36.342 29.099-77.358 29.099-118.613C512 190.264 487.3 127.97 442.45 80.323z"/><path style="fill:#d9510d" d="M442.45 80.323C397.799 32.887 337.513 4.464 272.698.288a8.05 8.05 0 0 0-6.052 2.172 8.094 8.094 0 0 0-1.924 2.775c118.297 23.499 207.472 127.857 207.472 253.057 0 37.714-8.095 73.536-22.637 105.828l21.974 13.379a8.086 8.086 0 0 0 11.371-3.154c19.037-36.342 29.099-77.358 29.099-118.613C512 190.264 487.3 127.97 442.45 80.323z"/><path style="fill:#3fc8f2" d="M466.808 396.562a8.09 8.09 0 0 0-3.712-5.26L260.211 267.766a8.092 8.092 0 0 0-8.416.002L48.97 391.404a8.088 8.088 0 0 0-2.403 11.565C94.53 471.072 172.824 511.731 256 511.731c83.225 0 161.545-40.697 209.504-108.865a8.09 8.09 0 0 0 1.304-6.304z"/><path style="fill:#ffdb56" d="M245.356 2.46a8.085 8.085 0 0 0-6.052-2.172c-64.816 4.176-125.102 32.6-169.752 80.035C24.7 127.97 0 190.264 0 255.731c0 41.296 10.083 82.348 29.156 118.721a8.088 8.088 0 0 0 11.373 3.149l203.504-124.049a8.088 8.088 0 0 0 3.878-6.906V8.359a8.08 8.08 0 0 0-2.555-5.899z"/><path style="fill:#fba806" d="M239.303.288a256.591 256.591 0 0 0-31.834 4.072v271.482l36.564-22.289a8.088 8.088 0 0 0 3.878-6.906V8.359a8.084 8.084 0 0 0-8.608-8.071z"/><path style="fill:#0daace" d="m463.096 391.303-20.687-12.596c-35.922 67.945-101.285 117.909-179.11 132.914 80.488-2.303 155.651-42.582 202.206-108.754a8.091 8.091 0 0 0-2.409-11.564z"/></svg>