<?xml version="1.0" encoding="UTF-8"?>
<!DOCTYPE svg PUBLIC "-//W3C//DTD SVG 1.1//EN" "http://www.w3.org/Graphics/SVG/1.1/DTD/svg11.dtd">
<svg xmlns="http://www.w3.org/2000/svg" xmlns:xlink="http://www.w3.org/1999/xlink" version="1.1" width="194px" height="92px" viewBox="-0.5 -0.5 194 92"><defs><style>@keyframes ge-flow-animation-nlozZqbUznKIWs9OJIgg {&#xa;  to {&#xa;    stroke-dashoffset: 0;&#xa;  }&#xa;}</style></defs><g><g style="filter: drop-shadow(rgba(0, 0, 0, 0.25) 2px 3px 2px);"><ellipse cx="44" cy="44" rx="40" ry="40" fill-opacity="0.5" fill="#9999ff" stroke="none" pointer-events="all"/></g><g style="filter: drop-shadow(rgba(0, 0, 0, 0.25) 2px 3px 2px);"><ellipse cx="147" cy="44" rx="40" ry="40" fill-opacity="0.5" fill="#ff66b3" stroke="none" pointer-events="all"/></g><g><path d="M 59.07 16.5 Q 95.5 16.5 131.93 16.08" fill="none" stroke="#4d4d4d" stroke-miterlimit="10" pointer-events="stroke" stroke-dasharray="8" style="animation: 500ms linear 0s infinite normal none running ge-flow-animation-nlozZqbUznKIWs9OJIgg; stroke-dashoffset: 16;"/><path d="M 53.07 16.5 L 59.07 14.5 L 59.07 18.5 Z" fill="#4d4d4d" stroke="#4d4d4d" stroke-miterlimit="10" pointer-events="all"/><path d="M 137.93 16.01 L 131.96 18.08 L 131.91 14.08 Z" fill="#4d4d4d" stroke="#4d4d4d" stroke-miterlimit="10" pointer-events="all"/></g><g><path d="M 59.07 20 Q 95.5 20 95.5 30 Q 95.5 40 131.93 40" fill="none" stroke="#4d4d4d" stroke-miterlimit="10" pointer-events="stroke" stroke-dasharray="8" style="animation: 500ms linear 0s infinite normal none running ge-flow-animation-nlozZqbUznKIWs9OJIgg; stroke-dashoffset: 16;"/><path d="M 53.07 20 L 59.07 18 L 59.07 22 Z" fill="#4d4d4d" stroke="#4d4d4d" stroke-miterlimit="10" pointer-events="all"/><path d="M 137.93 40 L 131.93 42 L 131.93 38 Z" fill="#4d4d4d" stroke="#4d4d4d" stroke-miterlimit="10" pointer-events="all"/></g><g><path d="M 59.07 23.5 Q 95.5 23.5 95.5 44.25 Q 95.5 65 131.93 65" fill="none" stroke="#4d4d4d" stroke-miterlimit="10" pointer-events="stroke" stroke-dasharray="8" style="animation: 500ms linear 0s infinite normal none running ge-flow-animation-nlozZqbUznKIWs9OJIgg; stroke-dashoffset: 16;"/><path d="M 53.07 23.5 L 59.07 21.5 L 59.07 25.5 Z" fill="#4d4d4d" stroke="#4d4d4d" stroke-miterlimit="10" pointer-events="all"/><path d="M 137.93 65 L 131.93 67 L 131.93 63 Z" fill="#4d4d4d" stroke="#4d4d4d" stroke-miterlimit="10" pointer-events="all"/></g><g style="filter: drop-shadow(rgba(0, 0, 0, 0.25) 2px 3px 2px);"><rect x="36.04" y="13" width="15.91" height="14" rx="2.1" ry="2.1" fill="rgb(255, 255, 255)" stroke="none" pointer-events="all"/></g><g><path d="M 59.07 40.5 Q 95.5 40.5 95.5 30 Q 95.5 19.5 131.93 19.5" fill="none" stroke="#4d4d4d" stroke-miterlimit="10" pointer-events="stroke" stroke-dasharray="8" style="animation: 500ms linear 0s infinite normal none running ge-flow-animation-nlozZqbUznKIWs9OJIgg; stroke-dashoffset: 16;"/><path d="M 53.07 40.5 L 59.07 38.5 L 59.07 42.5 Z" fill="#4d4d4d" stroke="#4d4d4d" stroke-miterlimit="10" pointer-events="all"/><path d="M 137.93 19.5 L 131.93 21.5 L 131.93 17.5 Z" fill="#4d4d4d" stroke="#4d4d4d" stroke-miterlimit="10" pointer-events="all"/></g><g><path d="M 59.07 44 Q 95.5 44 131.93 43.58" fill="none" stroke="#4d4d4d" stroke-miterlimit="10" pointer-events="stroke" stroke-dasharray="8" style="animation: 500ms linear 0s infinite normal none running ge-flow-animation-nlozZqbUznKIWs9OJIgg; stroke-dashoffset: 16;"/><path d="M 53.07 44 L 59.07 42 L 59.07 46 Z" fill="#4d4d4d" stroke="#4d4d4d" stroke-miterlimit="10" pointer-events="all"/><path d="M 137.93 43.51 L 131.96 45.58 L 131.91 41.58 Z" fill="#4d4d4d" stroke="#4d4d4d" stroke-miterlimit="10" pointer-events="all"/></g><g><path d="M 59.07 47.5 Q 95.5 47.5 95.5 58 Q 95.5 68.5 131.93 68.5" fill="none" stroke="#4d4d4d" stroke-miterlimit="10" pointer-events="stroke" stroke-dasharray="8" style="animation: 500ms linear 0s infinite normal none running ge-flow-animation-nlozZqbUznKIWs9OJIgg; stroke-dashoffset: 16;"/><path d="M 53.07 47.5 L 59.07 45.5 L 59.07 49.5 Z" fill="#4d4d4d" stroke="#4d4d4d" stroke-miterlimit="10" pointer-events="all"/><path d="M 137.93 68.5 L 131.93 70.5 L 131.93 66.5 Z" fill="#4d4d4d" stroke="#4d4d4d" stroke-miterlimit="10" pointer-events="all"/></g><g style="filter: drop-shadow(rgba(0, 0, 0, 0.25) 2px 3px 2px);"><rect x="36.04" y="37" width="15.91" height="14" rx="2.1" ry="2.1" fill="rgb(255, 255, 255)" stroke="none" pointer-events="all"/></g><g><path d="M 59.07 65.5 Q 95.5 65.5 95.5 44.25 Q 95.5 23 131.93 23" fill="none" stroke="#4d4d4d" stroke-miterlimit="10" pointer-events="stroke" stroke-dasharray="8" style="animation: 500ms linear 0s infinite normal none running ge-flow-animation-nlozZqbUznKIWs9OJIgg; stroke-dashoffset: 16;"/><path d="M 53.07 65.5 L 59.07 63.5 L 59.07 67.5 Z" fill="#4d4d4d" stroke="#4d4d4d" stroke-miterlimit="10" pointer-events="all"/><path d="M 137.93 23 L 131.93 25 L 131.93 21 Z" fill="#4d4d4d" stroke="#4d4d4d" stroke-miterlimit="10" pointer-events="all"/></g><g><path d="M 59.07 69 Q 95.5 69 95.5 58 Q 95.5 47 131.93 47" fill="none" stroke="#4d4d4d" stroke-miterlimit="10" pointer-events="stroke" stroke-dasharray="8" style="animation: 500ms linear 0s infinite normal none running ge-flow-animation-nlozZqbUznKIWs9OJIgg; stroke-dashoffset: 16;"/><path d="M 53.07 69 L 59.07 67 L 59.07 71 Z" fill="#4d4d4d" stroke="#4d4d4d" stroke-miterlimit="10" pointer-events="all"/><path d="M 137.93 47 L 131.93 49 L 131.93 45 Z" fill="#4d4d4d" stroke="#4d4d4d" stroke-miterlimit="10" pointer-events="all"/></g><g><path d="M 59.07 72.5 Q 95.5 72.5 131.93 72.08" fill="none" stroke="#4d4d4d" stroke-miterlimit="10" pointer-events="stroke" stroke-dasharray="8" style="animation: 500ms linear 0s infinite normal none running ge-flow-animation-nlozZqbUznKIWs9OJIgg; stroke-dashoffset: 16;"/><path d="M 53.07 72.5 L 59.07 70.5 L 59.07 74.5 Z" fill="#4d4d4d" stroke="#4d4d4d" stroke-miterlimit="10" pointer-events="all"/><path d="M 137.93 72.01 L 131.96 74.08 L 131.91 70.08 Z" fill="#4d4d4d" stroke="#4d4d4d" stroke-miterlimit="10" pointer-events="all"/></g><g style="filter: drop-shadow(rgba(0, 0, 0, 0.25) 2px 3px 2px);"><rect x="36.04" y="62" width="15.91" height="14" rx="2.1" ry="2.1" fill="rgb(255, 255, 255)" stroke="none" pointer-events="all"/></g><g style="filter: drop-shadow(rgba(0, 0, 0, 0.25) 2px 3px 2px);"><rect x="139.05" y="12.5" width="15.91" height="14" rx="2.1" ry="2.1" fill="rgb(255, 255, 255)" stroke="none" pointer-events="all"/></g><g style="filter: drop-shadow(rgba(0, 0, 0, 0.25) 2px 3px 2px);"><rect x="139.05" y="36.5" width="15.91" height="14" rx="2.1" ry="2.1" fill="rgb(255, 255, 255)" stroke="none" pointer-events="all"/></g><g style="filter: drop-shadow(rgba(0, 0, 0, 0.25) 2px 3px 2px);"><rect x="139.05" y="61.5" width="15.91" height="14" rx="2.1" ry="2.1" fill="rgb(255, 255, 255)" stroke="none" pointer-events="all"/></g></g></svg>