<svg xmlns="http://www.w3.org/2000/svg" id="Layer_1" data-name="Layer 1" viewBox="0 0 53.58 53.58"><defs><style>.cls-3{fill:#3d4752}</style></defs><path d="M.33.33h42.33l10.59 10.58v42.34H.33z" style="fill:#d2e5b3;stroke:#b3c398;stroke-width:.66px"/><path d="m42.66.33 10.59 10.58H42.66z" style="fill:#b3c398"/><path id="q" class="cls-3" d="M21 26.33c-.45 0-.67.33-.67.77v1.57h-.71v-2.85h.68a2.89 2.89 0 0 0 0 .46 1 1 0 0 1 .89-.54 1 1 0 0 1 1.05 1.15v1.79h-.71v-1.59c0-.42-.11-.76-.54-.76"/><path id="w" class="cls-3" d="M24.48 28.76a1.43 1.43 0 0 1-1.55-1.52 1.42 1.42 0 0 1 1.55-1.5A1.42 1.42 0 0 1 26 27.23a1.43 1.43 0 0 1-1.52 1.53zm0-2.44a.81.81 0 0 0-.83.92.83.83 0 1 0 1.65 0 .81.81 0 0 0-.83-.92"/><path id="y" class="cls-3" d="M27.74 28.73c-.66 0-.93-.36-.93-1v-1.34h-.5v-.57h.5V25h.7v.83h.71v.57h-.71v1.33c0 .27.07.45.38.44a.79.79 0 0 0 .3-.06v.56a1.45 1.45 0 0 1-.48.08"/><path id="o" class="cls-3" d="M30.76 27a.63.63 0 0 0-.67-.69.76.76 0 0 0-.79.69zm-.67-1.23c1 0 1.43.68 1.38 1.74h-2.18a.77.77 0 0 0 .82.7.83.83 0 0 0 .76-.37l.48.38a1.43 1.43 0 0 1-1.23.57 1.39 1.39 0 0 1-1.54-1.49 1.41 1.41 0 0 1 1.51-1.53"/><path id="t" class="cls-3" d="M32.06 27c-.37-1 .73-1.5 1.67-1.14a1 1 0 0 1 .47.33l-.46.41a.81.81 0 0 0-.63-.31c-.21 0-.48.08-.46.31 0 .38.61.32.95.47a.83.83 0 0 1 .6.76c0 1.19-1.82 1.15-2.36.48l.47-.44a.9.9 0 0 0 .73.36c.24 0 .46-.09.46-.34 0-.41-.61-.34-1-.5a.79.79 0 0 1-.46-.38"/></svg>