<svg xmlns="http://www.w3.org/2000/svg" width="549" height="430" viewBox="0 0 549 430" version="1.1"><path d="M 205.495 5.414 C 202.342 8.567, 201.473 12.313, 203.025 16.059 C 205.018 20.872, 207.524 22, 216.223 22 L 224 22 224 45.867 L 224 69.734 215.250 72.979 C 200.245 78.544, 182.941 88.112, 168.282 98.950 L 165.387 101.090 148.443 94.943 C 105.568 79.389, 70.662 70.191, 46 67.950 C 17.824 65.389, 2.999 72.849, 3.001 89.588 C 3.002 98.780, 9.325 110.438, 21.159 123.064 C 28.676 131.085, 28.362 130.414, 26.358 134.159 C 25.048 136.608, 24.567 139.770, 24.557 146 C 24.546 153.083, 24.975 155.417, 27.134 160 C 35.218 177.158, 55.446 184.445, 71.812 176.096 L 75.558 174.185 89.029 184.660 C 96.438 190.421, 102.656 195.571, 102.846 196.105 C 103.036 196.638, 102.147 202.120, 100.870 208.287 C 98.819 218.193, 98.554 222.182, 98.605 242.500 C 98.646 258.864, 99.104 267.741, 100.190 273.268 L 101.718 281.036 91.609 289.755 C 69.656 308.690, 50.105 330.123, 41.774 344.387 C 31.794 361.475, 31.498 373.938, 40.857 383.019 C 54.305 396.068, 84.542 393.989, 138.203 376.325 L 151.906 371.814 160.203 379.007 C 203.547 416.586, 261.847 431.047, 318.960 418.387 L 330.895 415.741 334.174 419.020 C 335.977 420.824, 340.164 423.582, 343.477 425.149 C 348.544 427.546, 350.769 427.997, 357.500 427.989 C 366.964 427.979, 373.333 425.499, 380.234 419.138 C 388.010 411.971, 392.458 398.900, 390.313 389.525 L 389.280 385.011 393.890 381.290 C 396.426 379.243, 398.739 377.328, 399.031 377.034 C 399.322 376.740, 402.079 374.095, 405.157 371.157 L 410.752 365.813 426.126 370.893 C 466.010 384.073, 494.457 388.384, 510.296 383.650 C 517.929 381.368, 525.284 374.483, 527.015 368 C 532.212 348.528, 510.928 319.067, 461.554 277.391 L 456.686 273.281 457.843 263.105 C 459.918 244.857, 459.187 227.615, 455.420 205.948 C 454.828 202.543, 455.045 202.212, 460.651 197.959 C 492.604 173.719, 523.054 144.330, 535.726 125.500 C 551.812 101.598, 550.672 84.054, 532.500 75.850 C 526.245 73.026, 510.005 72.181, 496.566 73.980 C 467.990 77.806, 425.819 92.138, 366.077 118.328 L 344.653 127.720 341.163 124.230 C 339.244 122.310, 335.159 119.570, 332.086 118.141 C 327.436 115.979, 325.076 115.546, 318 115.561 C 307.329 115.584, 300.342 118.601, 293.601 126.098 C 278.578 142.808, 283.548 168.252, 303.781 178.213 C 309.427 180.993, 311.539 181.497, 317.478 181.482 C 326.454 181.459, 331.520 179.908, 337.801 175.260 C 345.916 169.257, 350.677 160.586, 351.233 150.802 C 351.535 145.495, 350.184 146.481, 367 139.293 C 372.775 136.824, 379.851 133.735, 382.723 132.428 C 392.186 128.123, 391.981 128.082, 398.951 135.680 C 421.571 160.335, 436.262 195.283, 438.939 230.807 C 440.547 252.134, 437.739 274.236, 430.849 294.500 C 426.060 308.586, 410.805 336.597, 405.547 340.961 C 404.002 342.244, 397.843 340.235, 382.500 333.444 C 379.750 332.227, 374.125 329.776, 370 327.998 C 301.597 298.508, 208.422 246.119, 144.500 201.207 C 124.460 187.127, 125.113 188.710, 132.813 172.876 C 153.877 129.561, 192.854 97.596, 238.750 85.997 L 243 84.923 243 53.461 L 243 22 275 22 L 307 22 307 54 L 307 86 317 86 L 327 86 327 54 L 327 22 338.453 22 C 350.845 22, 354.173 21.111, 355.890 17.343 C 357.341 14.158, 357.254 8.914, 355.718 6.913 C 352.737 3.030, 352.150 3, 279.020 3 L 207.909 3 205.495 5.414 M 27.652 87.049 C 24.986 87.496, 22.569 88.097, 22.282 88.385 C 20.362 90.304, 26.684 100.519, 35.656 109.997 L 41.813 116.500 45.156 115.214 C 46.995 114.507, 51.226 113.662, 54.558 113.337 C 76.595 111.188, 95.172 132.429, 89.647 153.457 C 88.786 156.734, 88.176 159.464, 88.291 159.523 C 88.406 159.583, 91.875 162.326, 96 165.620 C 104.336 172.276, 109.504 176, 110.404 176 C 110.732 176, 111.006 175.438, 111.014 174.750 C 111.041 172.397, 120.652 153.507, 126.150 145 C 132.144 135.726, 139.036 126.828, 145.247 120.346 C 148.935 116.498, 149.089 116.118, 147.336 115.180 C 143.860 113.320, 107.681 101.312, 92.880 97.106 C 75.506 92.169, 58.142 88.546, 44.789 87.072 C 34.112 85.893, 34.535 85.894, 27.652 87.049 M 494.963 93.963 C 476.435 97.327, 457.538 102.860, 431 112.694 C 421.375 116.260, 413.160 119.500, 412.746 119.894 C 412.331 120.287, 413.989 122.949, 416.431 125.810 C 427.313 138.559, 438.485 156.732, 444.519 171.500 C 446.542 176.450, 448.516 180.841, 448.907 181.258 C 450.076 182.507, 480.451 156.578, 496.048 141.015 C 514.837 122.268, 524.926 108.696, 527.039 99.325 C 527.710 96.352, 527.487 95.710, 525.277 94.262 C 521.485 91.777, 507.748 91.642, 494.963 93.963 M 51.009 133.855 C 46.319 136.371, 42.663 143.272, 43.516 148 C 44.792 155.069, 50.446 159.990, 57.300 159.996 C 65.287 160.004, 70.989 154.216, 70.996 146.094 C 71.001 140.772, 67.430 135.495, 62.400 133.394 C 57.928 131.525, 55.144 131.638, 51.009 133.855 M 313.587 135.506 C 305.604 138.302, 302.190 146.629, 305.891 154.274 C 308.416 159.490, 312.403 162.001, 318.154 161.996 C 326.062 161.989, 332.005 155.916, 331.996 147.849 C 331.986 138.943, 322.305 132.452, 313.587 135.506 M 119.038 216.202 C 114.776 240.668, 117.508 271.010, 126.224 296 C 131.744 311.829, 144.696 334.644, 154.167 345.223 L 157.500 348.946 170.500 343.597 C 198.024 332.272, 257.532 304.186, 263.378 299.761 C 265.467 298.180, 265.229 298.003, 249.500 289.456 C 235.569 281.886, 193.026 256.505, 177.500 246.501 C 156.266 232.820, 146.831 226.570, 135.706 218.818 C 128.669 213.915, 122.326 209.678, 121.610 209.404 C 120.678 209.046, 119.949 210.972, 119.038 216.202 M 449.109 301.750 C 447.860 305.462, 444.440 313.534, 441.509 319.686 C 436.954 329.247, 433.824 334.651, 425.342 347.601 C 424.004 349.642, 424.326 349.818, 436.833 353.870 C 468.380 364.091, 491.525 367.911, 503.557 364.881 C 507.410 363.911, 507.999 363.413, 507.990 361.131 C 507.964 354.007, 497.043 338.308, 480.192 321.170 C 470.256 311.064, 452.843 295, 451.825 295 C 451.580 295, 450.358 298.038, 449.109 301.750 M 98.334 309.785 C 77.653 328.399, 60.779 347.821, 55.578 359 C 50.776 369.323, 52.179 371.201, 65.160 371.822 C 74.889 372.287, 83.806 371.159, 99.670 367.454 C 110.791 364.858, 134.971 357.288, 136.385 355.961 C 136.886 355.490, 135.980 353.473, 134.298 351.315 C 125.674 340.246, 117.309 325.647, 111.484 311.500 C 109.446 306.550, 107.641 302.350, 107.473 302.167 C 107.305 301.984, 103.192 305.412, 98.334 309.785 M 280 313.151 C 260.321 324.201, 206.748 349.750, 183.750 359.053 C 177.838 361.445, 173 363.695, 173 364.053 C 173 365.028, 183.543 373.111, 191.500 378.237 C 228.509 402.079, 277.756 409.882, 318.613 398.377 L 323.727 396.938 324.291 391.466 C 325.515 379.612, 332.458 370.102, 343.804 364.740 C 349.629 361.987, 350.773 361.792, 358.846 362.178 C 365.992 362.520, 368.464 363.088, 372.418 365.298 C 375.076 366.784, 377.709 368, 378.268 368 C 379.630 368, 390 359.093, 390 357.923 C 390 357.415, 389.484 357, 388.853 357 C 385.526 357, 332.654 332.957, 302.872 317.901 C 294.276 313.555, 286.851 310.014, 286.372 310.031 C 285.892 310.048, 283.025 311.452, 280 313.151 M 353 381.669 C 349.030 383.300, 346.001 386.430, 344.442 390.513 C 342.824 394.750, 342.824 395.250, 344.442 399.487 C 348.643 410.488, 363.038 412.147, 369.105 402.330 C 374.241 394.021, 368.466 382.218, 358.875 381.417 C 356.469 381.217, 353.825 381.330, 353 381.669" stroke="none" fill="#000000" fill-rule="evenodd"/></svg>